<svg xmlns="http://www.w3.org/2000/svg" xmlns:xlink="http://www.w3.org/1999/xlink" width="130" zoomAndPan="magnify" viewBox="0 0 97.5 37.5" height="50" preserveAspectRatio="xMidYMid meet" version="1.0"><defs><g/></defs><g fill="#1f77b4" fill-opacity="0.4"><g transform="translate(9.500593, 17.212652)"><g><path d="M 8.421875 -4.75 L 6.421875 -9.953125 C 6.359375 -10.109375 6.296875 -10.289062 6.234375 -10.5 C 6.171875 -10.707031 6.109375 -10.925781 6.046875 -11.15625 C 5.921875 -10.675781 5.789062 -10.273438 5.65625 -9.953125 L 3.65625 -4.75 Z M 12.03125 0 L 10.703125 0 C 10.546875 0 10.421875 -0.0351562 10.328125 -0.109375 C 10.234375 -0.191406 10.160156 -0.289062 10.109375 -0.40625 L 8.90625 -3.5 L 3.171875 -3.5 L 1.96875 -0.40625 C 1.9375 -0.300781 1.867188 -0.207031 1.765625 -0.125 C 1.660156 -0.0390625 1.535156 0 1.390625 0 L 0.046875 0 L 5.171875 -12.796875 L 6.921875 -12.796875 Z M 12.03125 0 "/></g></g></g><g fill="#1f77b4" fill-opacity="0.4"><g transform="translate(21.588001, 17.212652)"><g><path d="M 7.546875 -7.4375 C 7.503906 -7.375 7.457031 -7.320312 7.40625 -7.28125 C 7.363281 -7.25 7.300781 -7.234375 7.21875 -7.234375 C 7.125 -7.234375 7.023438 -7.269531 6.921875 -7.34375 C 6.816406 -7.414062 6.679688 -7.492188 6.515625 -7.578125 C 6.359375 -7.671875 6.164062 -7.753906 5.9375 -7.828125 C 5.707031 -7.910156 5.425781 -7.953125 5.09375 -7.953125 C 4.644531 -7.953125 4.25 -7.867188 3.90625 -7.703125 C 3.570312 -7.546875 3.289062 -7.316406 3.0625 -7.015625 C 2.832031 -6.722656 2.660156 -6.363281 2.546875 -5.9375 C 2.429688 -5.519531 2.375 -5.050781 2.375 -4.53125 C 2.375 -3.976562 2.4375 -3.488281 2.5625 -3.0625 C 2.6875 -2.632812 2.863281 -2.273438 3.09375 -1.984375 C 3.320312 -1.703125 3.597656 -1.484375 3.921875 -1.328125 C 4.242188 -1.179688 4.609375 -1.109375 5.015625 -1.109375 C 5.398438 -1.109375 5.71875 -1.15625 5.96875 -1.25 C 6.21875 -1.34375 6.425781 -1.441406 6.59375 -1.546875 C 6.757812 -1.660156 6.894531 -1.765625 7 -1.859375 C 7.113281 -1.953125 7.222656 -2 7.328125 -2 C 7.460938 -2 7.566406 -1.945312 7.640625 -1.84375 L 8.078125 -1.265625 C 7.878906 -1.023438 7.65625 -0.816406 7.40625 -0.640625 C 7.15625 -0.472656 6.882812 -0.328125 6.59375 -0.203125 C 6.3125 -0.0859375 6.007812 -0.00390625 5.6875 0.046875 C 5.375 0.0976562 5.054688 0.125 4.734375 0.125 C 4.171875 0.125 3.644531 0.0195312 3.15625 -0.1875 C 2.664062 -0.394531 2.242188 -0.695312 1.890625 -1.09375 C 1.535156 -1.488281 1.253906 -1.972656 1.046875 -2.546875 C 0.847656 -3.128906 0.75 -3.789062 0.75 -4.53125 C 0.75 -5.195312 0.84375 -5.816406 1.03125 -6.390625 C 1.21875 -6.960938 1.488281 -7.453125 1.84375 -7.859375 C 2.207031 -8.273438 2.648438 -8.597656 3.171875 -8.828125 C 3.703125 -9.066406 4.3125 -9.1875 5 -9.1875 C 5.632812 -9.1875 6.191406 -9.082031 6.671875 -8.875 C 7.160156 -8.675781 7.59375 -8.390625 7.96875 -8.015625 Z M 7.546875 -7.4375 "/></g></g></g><g fill="#1f77b4" fill-opacity="0.4"><g transform="translate(30.113466, 17.212652)"><g><path d="M 6.15625 -4.078125 C 5.425781 -4.046875 4.800781 -3.984375 4.28125 -3.890625 C 3.769531 -3.804688 3.351562 -3.6875 3.03125 -3.53125 C 2.707031 -3.382812 2.472656 -3.207031 2.328125 -3 C 2.179688 -2.800781 2.109375 -2.578125 2.109375 -2.328125 C 2.109375 -2.085938 2.144531 -1.878906 2.21875 -1.703125 C 2.300781 -1.535156 2.40625 -1.394531 2.53125 -1.28125 C 2.664062 -1.175781 2.820312 -1.097656 3 -1.046875 C 3.1875 -0.992188 3.382812 -0.96875 3.59375 -0.96875 C 3.875 -0.96875 4.128906 -0.992188 4.359375 -1.046875 C 4.597656 -1.109375 4.816406 -1.191406 5.015625 -1.296875 C 5.222656 -1.410156 5.421875 -1.539062 5.609375 -1.6875 C 5.796875 -1.832031 5.976562 -2.003906 6.15625 -2.203125 Z M 1.03125 -7.765625 C 1.53125 -8.242188 2.066406 -8.601562 2.640625 -8.84375 C 3.222656 -9.082031 3.863281 -9.203125 4.5625 -9.203125 C 5.070312 -9.203125 5.519531 -9.117188 5.90625 -8.953125 C 6.300781 -8.785156 6.628906 -8.550781 6.890625 -8.25 C 7.160156 -7.957031 7.363281 -7.597656 7.5 -7.171875 C 7.644531 -6.753906 7.71875 -6.289062 7.71875 -5.78125 L 7.71875 0 L 7.015625 0 C 6.859375 0 6.738281 -0.0234375 6.65625 -0.078125 C 6.570312 -0.128906 6.503906 -0.226562 6.453125 -0.375 L 6.28125 -1.234375 C 6.039062 -1.015625 5.804688 -0.816406 5.578125 -0.640625 C 5.347656 -0.472656 5.109375 -0.332031 4.859375 -0.21875 C 4.609375 -0.101562 4.34375 -0.015625 4.0625 0.046875 C 3.78125 0.109375 3.46875 0.140625 3.125 0.140625 C 2.769531 0.140625 2.4375 0.09375 2.125 0 C 1.820312 -0.101562 1.554688 -0.25 1.328125 -0.4375 C 1.097656 -0.632812 0.914062 -0.882812 0.78125 -1.1875 C 0.644531 -1.488281 0.578125 -1.847656 0.578125 -2.265625 C 0.578125 -2.617188 0.675781 -2.957031 0.875 -3.28125 C 1.070312 -3.613281 1.390625 -3.90625 1.828125 -4.15625 C 2.265625 -4.414062 2.835938 -4.628906 3.546875 -4.796875 C 4.253906 -4.960938 5.125 -5.054688 6.15625 -5.078125 L 6.15625 -5.78125 C 6.15625 -6.488281 6.003906 -7.019531 5.703125 -7.375 C 5.398438 -7.738281 4.957031 -7.921875 4.375 -7.921875 C 3.976562 -7.921875 3.644531 -7.867188 3.375 -7.765625 C 3.113281 -7.671875 2.882812 -7.5625 2.6875 -7.4375 C 2.5 -7.320312 2.332031 -7.210938 2.1875 -7.109375 C 2.050781 -7.015625 1.914062 -6.96875 1.78125 -6.96875 C 1.675781 -6.96875 1.582031 -6.992188 1.5 -7.046875 C 1.425781 -7.109375 1.363281 -7.179688 1.3125 -7.265625 Z M 1.03125 -7.765625 "/></g></g></g><g fill="#1f77b4" fill-opacity="0.4"><g transform="translate(38.987092, 17.212652)"><g><path d="M 7.15625 -6.890625 C 6.851562 -7.285156 6.53125 -7.5625 6.1875 -7.71875 C 5.84375 -7.882812 5.457031 -7.96875 5.03125 -7.96875 C 4.1875 -7.96875 3.535156 -7.664062 3.078125 -7.0625 C 2.628906 -6.457031 2.40625 -5.597656 2.40625 -4.484375 C 2.40625 -3.898438 2.457031 -3.394531 2.5625 -2.96875 C 2.664062 -2.550781 2.8125 -2.207031 3 -1.9375 C 3.195312 -1.664062 3.4375 -1.46875 3.71875 -1.34375 C 4.007812 -1.21875 4.335938 -1.15625 4.703125 -1.15625 C 5.222656 -1.15625 5.675781 -1.273438 6.0625 -1.515625 C 6.457031 -1.753906 6.820312 -2.09375 7.15625 -2.53125 Z M 8.75 -13.15625 L 8.75 0 L 7.796875 0 C 7.566406 0 7.421875 -0.109375 7.359375 -0.328125 L 7.21875 -1.421875 C 6.832031 -0.960938 6.390625 -0.585938 5.890625 -0.296875 C 5.398438 -0.015625 4.832031 0.125 4.1875 0.125 C 3.664062 0.125 3.191406 0.0234375 2.765625 -0.171875 C 2.347656 -0.367188 1.988281 -0.660156 1.6875 -1.046875 C 1.394531 -1.441406 1.164062 -1.925781 1 -2.5 C 0.84375 -3.070312 0.765625 -3.734375 0.765625 -4.484375 C 0.765625 -5.148438 0.851562 -5.769531 1.03125 -6.34375 C 1.207031 -6.925781 1.460938 -7.425781 1.796875 -7.84375 C 2.128906 -8.269531 2.539062 -8.601562 3.03125 -8.84375 C 3.519531 -9.082031 4.066406 -9.203125 4.671875 -9.203125 C 5.222656 -9.203125 5.695312 -9.109375 6.09375 -8.921875 C 6.488281 -8.734375 6.84375 -8.472656 7.15625 -8.140625 L 7.15625 -13.15625 Z M 8.75 -13.15625 "/></g></g></g><g fill="#1f77b4" fill-opacity="0.4"><g transform="translate(48.985541, 17.212652)"><g><path d="M 7.3125 -5.515625 C 7.3125 -5.878906 7.257812 -6.210938 7.15625 -6.515625 C 7.050781 -6.828125 6.898438 -7.09375 6.703125 -7.3125 C 6.503906 -7.539062 6.257812 -7.710938 5.96875 -7.828125 C 5.6875 -7.953125 5.363281 -8.015625 5 -8.015625 C 4.238281 -8.015625 3.632812 -7.789062 3.1875 -7.34375 C 2.75 -6.90625 2.472656 -6.296875 2.359375 -5.515625 Z M 8.59375 -1.265625 C 8.394531 -1.023438 8.160156 -0.816406 7.890625 -0.640625 C 7.617188 -0.472656 7.328125 -0.332031 7.015625 -0.21875 C 6.703125 -0.101562 6.378906 -0.0195312 6.046875 0.03125 C 5.710938 0.09375 5.378906 0.125 5.046875 0.125 C 4.421875 0.125 3.84375 0.0195312 3.3125 -0.1875 C 2.789062 -0.40625 2.335938 -0.71875 1.953125 -1.125 C 1.578125 -1.53125 1.28125 -2.03125 1.0625 -2.625 C 0.84375 -3.226562 0.734375 -3.921875 0.734375 -4.703125 C 0.734375 -5.335938 0.832031 -5.925781 1.03125 -6.46875 C 1.226562 -7.019531 1.503906 -7.492188 1.859375 -7.890625 C 2.222656 -8.296875 2.664062 -8.613281 3.1875 -8.84375 C 3.71875 -9.070312 4.3125 -9.1875 4.96875 -9.1875 C 5.507812 -9.1875 6.007812 -9.09375 6.46875 -8.90625 C 6.925781 -8.726562 7.320312 -8.46875 7.65625 -8.125 C 8 -7.78125 8.265625 -7.359375 8.453125 -6.859375 C 8.648438 -6.359375 8.75 -5.785156 8.75 -5.140625 C 8.75 -4.890625 8.71875 -4.722656 8.65625 -4.640625 C 8.601562 -4.554688 8.503906 -4.515625 8.359375 -4.515625 L 2.3125 -4.515625 C 2.332031 -3.941406 2.410156 -3.441406 2.546875 -3.015625 C 2.691406 -2.597656 2.890625 -2.25 3.140625 -1.96875 C 3.390625 -1.6875 3.6875 -1.472656 4.03125 -1.328125 C 4.375 -1.191406 4.757812 -1.125 5.1875 -1.125 C 5.582031 -1.125 5.925781 -1.171875 6.21875 -1.265625 C 6.507812 -1.359375 6.757812 -1.457031 6.96875 -1.5625 C 7.175781 -1.664062 7.347656 -1.765625 7.484375 -1.859375 C 7.628906 -1.953125 7.75 -2 7.84375 -2 C 7.976562 -2 8.082031 -1.945312 8.15625 -1.84375 Z M 8.59375 -1.265625 "/></g></g></g><g fill="#1f77b4" fill-opacity="0.4"><g transform="translate(58.412651, 17.212652)"><g><path d="M 1.265625 0 L 1.265625 -9.046875 L 2.21875 -9.046875 C 2.4375 -9.046875 2.578125 -8.9375 2.640625 -8.71875 L 2.75 -7.78125 C 3.082031 -8.195312 3.457031 -8.535156 3.875 -8.796875 C 4.289062 -9.054688 4.773438 -9.1875 5.328125 -9.1875 C 5.929688 -9.1875 6.421875 -9.015625 6.796875 -8.671875 C 7.171875 -8.335938 7.441406 -7.878906 7.609375 -7.296875 C 7.742188 -7.628906 7.910156 -7.914062 8.109375 -8.15625 C 8.316406 -8.394531 8.550781 -8.585938 8.8125 -8.734375 C 9.070312 -8.890625 9.34375 -9.003906 9.625 -9.078125 C 9.914062 -9.148438 10.210938 -9.1875 10.515625 -9.1875 C 10.984375 -9.1875 11.40625 -9.109375 11.78125 -8.953125 C 12.15625 -8.804688 12.472656 -8.585938 12.734375 -8.296875 C 12.992188 -8.003906 13.191406 -7.644531 13.328125 -7.21875 C 13.460938 -6.789062 13.53125 -6.304688 13.53125 -5.765625 L 13.53125 0 L 11.9375 0 L 11.9375 -5.765625 C 11.9375 -6.472656 11.78125 -7.007812 11.46875 -7.375 C 11.15625 -7.738281 10.707031 -7.921875 10.125 -7.921875 C 9.863281 -7.921875 9.613281 -7.875 9.375 -7.78125 C 9.144531 -7.6875 8.9375 -7.550781 8.75 -7.375 C 8.570312 -7.195312 8.429688 -6.972656 8.328125 -6.703125 C 8.222656 -6.429688 8.171875 -6.117188 8.171875 -5.765625 L 8.171875 0 L 6.578125 0 L 6.578125 -5.765625 C 6.578125 -6.484375 6.429688 -7.019531 6.140625 -7.375 C 5.847656 -7.738281 5.421875 -7.921875 4.859375 -7.921875 C 4.472656 -7.921875 4.113281 -7.8125 3.78125 -7.59375 C 3.445312 -7.382812 3.140625 -7.097656 2.859375 -6.734375 L 2.859375 0 Z M 1.265625 0 "/></g></g></g><g fill="#1f77b4" fill-opacity="0.4"><g transform="translate(73.097878, 17.212652)"><g><path d="M 2.9375 -9.046875 L 2.9375 0 L 1.34375 0 L 1.34375 -9.046875 Z M 3.28125 -11.890625 C 3.28125 -11.734375 3.25 -11.585938 3.1875 -11.453125 C 3.125 -11.316406 3.039062 -11.195312 2.9375 -11.09375 C 2.832031 -10.988281 2.707031 -10.90625 2.5625 -10.84375 C 2.425781 -10.789062 2.28125 -10.765625 2.125 -10.765625 C 1.96875 -10.765625 1.820312 -10.789062 1.6875 -10.84375 C 1.550781 -10.90625 1.429688 -10.988281 1.328125 -11.09375 C 1.234375 -11.195312 1.15625 -11.316406 1.09375 -11.453125 C 1.039062 -11.585938 1.015625 -11.734375 1.015625 -11.890625 C 1.015625 -12.046875 1.039062 -12.191406 1.09375 -12.328125 C 1.15625 -12.460938 1.234375 -12.582031 1.328125 -12.6875 C 1.429688 -12.789062 1.550781 -12.875 1.6875 -12.9375 C 1.820312 -13 1.96875 -13.03125 2.125 -13.03125 C 2.28125 -13.03125 2.425781 -13 2.5625 -12.9375 C 2.707031 -12.875 2.832031 -12.789062 2.9375 -12.6875 C 3.039062 -12.582031 3.125 -12.460938 3.1875 -12.328125 C 3.25 -12.191406 3.28125 -12.046875 3.28125 -11.890625 Z M 3.28125 -11.890625 "/></g></g></g><g fill="#1f77b4" fill-opacity="0.4"><g transform="translate(77.382928, 17.212652)"><g><path d="M 7.546875 -7.4375 C 7.503906 -7.375 7.457031 -7.320312 7.40625 -7.28125 C 7.363281 -7.25 7.300781 -7.234375 7.21875 -7.234375 C 7.125 -7.234375 7.023438 -7.269531 6.921875 -7.34375 C 6.816406 -7.414062 6.679688 -7.492188 6.515625 -7.578125 C 6.359375 -7.671875 6.164062 -7.753906 5.9375 -7.828125 C 5.707031 -7.910156 5.425781 -7.953125 5.09375 -7.953125 C 4.644531 -7.953125 4.25 -7.867188 3.90625 -7.703125 C 3.570312 -7.546875 3.289062 -7.316406 3.0625 -7.015625 C 2.832031 -6.722656 2.660156 -6.363281 2.546875 -5.9375 C 2.429688 -5.519531 2.375 -5.050781 2.375 -4.53125 C 2.375 -3.976562 2.4375 -3.488281 2.5625 -3.0625 C 2.6875 -2.632812 2.863281 -2.273438 3.09375 -1.984375 C 3.320312 -1.703125 3.597656 -1.484375 3.921875 -1.328125 C 4.242188 -1.179688 4.609375 -1.109375 5.015625 -1.109375 C 5.398438 -1.109375 5.71875 -1.15625 5.96875 -1.25 C 6.21875 -1.34375 6.425781 -1.441406 6.59375 -1.546875 C 6.757812 -1.660156 6.894531 -1.765625 7 -1.859375 C 7.113281 -1.953125 7.222656 -2 7.328125 -2 C 7.460938 -2 7.566406 -1.945312 7.640625 -1.84375 L 8.078125 -1.265625 C 7.878906 -1.023438 7.65625 -0.816406 7.40625 -0.640625 C 7.15625 -0.472656 6.882812 -0.328125 6.59375 -0.203125 C 6.3125 -0.0859375 6.007812 -0.00390625 5.6875 0.046875 C 5.375 0.0976562 5.054688 0.125 4.734375 0.125 C 4.171875 0.125 3.644531 0.0195312 3.15625 -0.1875 C 2.664062 -0.394531 2.242188 -0.695312 1.890625 -1.09375 C 1.535156 -1.488281 1.253906 -1.972656 1.046875 -2.546875 C 0.847656 -3.128906 0.75 -3.789062 0.75 -4.53125 C 0.75 -5.195312 0.84375 -5.816406 1.03125 -6.390625 C 1.21875 -6.960938 1.488281 -7.453125 1.84375 -7.859375 C 2.207031 -8.273438 2.648438 -8.597656 3.171875 -8.828125 C 3.703125 -9.066406 4.3125 -9.1875 5 -9.1875 C 5.632812 -9.1875 6.191406 -9.082031 6.671875 -8.875 C 7.160156 -8.675781 7.59375 -8.390625 7.96875 -8.015625 Z M 7.546875 -7.4375 "/></g></g></g><g fill="#1f77b4" fill-opacity="1"><g transform="translate(10.542367, 16.812753)"><g><path d="M 8.421875 -4.75 L 6.421875 -9.953125 C 6.359375 -10.109375 6.296875 -10.289062 6.234375 -10.5 C 6.171875 -10.707031 6.109375 -10.925781 6.046875 -11.15625 C 5.921875 -10.675781 5.789062 -10.273438 5.65625 -9.953125 L 3.65625 -4.75 Z M 12.03125 0 L 10.703125 0 C 10.546875 0 10.421875 -0.0351562 10.328125 -0.109375 C 10.234375 -0.191406 10.160156 -0.289062 10.109375 -0.40625 L 8.90625 -3.5 L 3.171875 -3.5 L 1.96875 -0.40625 C 1.9375 -0.300781 1.867188 -0.207031 1.765625 -0.125 C 1.660156 -0.0390625 1.535156 0 1.390625 0 L 0.046875 0 L 5.171875 -12.796875 L 6.921875 -12.796875 Z M 12.03125 0 "/></g></g></g><g fill="#1f77b4" fill-opacity="1"><g transform="translate(22.629774, 16.812753)"><g><path d="M 7.546875 -7.4375 C 7.503906 -7.375 7.457031 -7.320312 7.40625 -7.28125 C 7.363281 -7.25 7.300781 -7.234375 7.21875 -7.234375 C 7.125 -7.234375 7.023438 -7.269531 6.921875 -7.34375 C 6.816406 -7.414062 6.679688 -7.492188 6.515625 -7.578125 C 6.359375 -7.671875 6.164062 -7.753906 5.9375 -7.828125 C 5.707031 -7.910156 5.425781 -7.953125 5.09375 -7.953125 C 4.644531 -7.953125 4.25 -7.867188 3.90625 -7.703125 C 3.570312 -7.546875 3.289062 -7.316406 3.0625 -7.015625 C 2.832031 -6.722656 2.660156 -6.363281 2.546875 -5.9375 C 2.429688 -5.519531 2.375 -5.050781 2.375 -4.53125 C 2.375 -3.976562 2.4375 -3.488281 2.5625 -3.0625 C 2.6875 -2.632812 2.863281 -2.273438 3.09375 -1.984375 C 3.320312 -1.703125 3.597656 -1.484375 3.921875 -1.328125 C 4.242188 -1.179688 4.609375 -1.109375 5.015625 -1.109375 C 5.398438 -1.109375 5.71875 -1.15625 5.96875 -1.25 C 6.21875 -1.34375 6.425781 -1.441406 6.59375 -1.546875 C 6.757812 -1.660156 6.894531 -1.765625 7 -1.859375 C 7.113281 -1.953125 7.222656 -2 7.328125 -2 C 7.460938 -2 7.566406 -1.945312 7.640625 -1.84375 L 8.078125 -1.265625 C 7.878906 -1.023438 7.65625 -0.816406 7.40625 -0.640625 C 7.15625 -0.472656 6.882812 -0.328125 6.59375 -0.203125 C 6.3125 -0.0859375 6.007812 -0.00390625 5.6875 0.046875 C 5.375 0.0976562 5.054688 0.125 4.734375 0.125 C 4.171875 0.125 3.644531 0.0195312 3.15625 -0.1875 C 2.664062 -0.394531 2.242188 -0.695312 1.890625 -1.09375 C 1.535156 -1.488281 1.253906 -1.972656 1.046875 -2.546875 C 0.847656 -3.128906 0.75 -3.789062 0.75 -4.53125 C 0.75 -5.195312 0.84375 -5.816406 1.03125 -6.390625 C 1.21875 -6.960938 1.488281 -7.453125 1.84375 -7.859375 C 2.207031 -8.273438 2.648438 -8.597656 3.171875 -8.828125 C 3.703125 -9.066406 4.3125 -9.1875 5 -9.1875 C 5.632812 -9.1875 6.191406 -9.082031 6.671875 -8.875 C 7.160156 -8.675781 7.59375 -8.390625 7.96875 -8.015625 Z M 7.546875 -7.4375 "/></g></g></g><g fill="#1f77b4" fill-opacity="1"><g transform="translate(31.15524, 16.812753)"><g><path d="M 6.15625 -4.078125 C 5.425781 -4.046875 4.800781 -3.984375 4.28125 -3.890625 C 3.769531 -3.804688 3.351562 -3.6875 3.03125 -3.53125 C 2.707031 -3.382812 2.472656 -3.207031 2.328125 -3 C 2.179688 -2.800781 2.109375 -2.578125 2.109375 -2.328125 C 2.109375 -2.085938 2.144531 -1.878906 2.21875 -1.703125 C 2.300781 -1.535156 2.40625 -1.394531 2.53125 -1.28125 C 2.664062 -1.175781 2.820312 -1.097656 3 -1.046875 C 3.1875 -0.992188 3.382812 -0.96875 3.59375 -0.96875 C 3.875 -0.96875 4.128906 -0.992188 4.359375 -1.046875 C 4.597656 -1.109375 4.816406 -1.191406 5.015625 -1.296875 C 5.222656 -1.410156 5.421875 -1.539062 5.609375 -1.6875 C 5.796875 -1.832031 5.976562 -2.003906 6.15625 -2.203125 Z M 1.03125 -7.765625 C 1.53125 -8.242188 2.066406 -8.601562 2.640625 -8.84375 C 3.222656 -9.082031 3.863281 -9.203125 4.5625 -9.203125 C 5.070312 -9.203125 5.519531 -9.117188 5.90625 -8.953125 C 6.300781 -8.785156 6.628906 -8.550781 6.890625 -8.25 C 7.160156 -7.957031 7.363281 -7.597656 7.5 -7.171875 C 7.644531 -6.753906 7.71875 -6.289062 7.71875 -5.78125 L 7.71875 0 L 7.015625 0 C 6.859375 0 6.738281 -0.0234375 6.65625 -0.078125 C 6.570312 -0.128906 6.503906 -0.226562 6.453125 -0.375 L 6.28125 -1.234375 C 6.039062 -1.015625 5.804688 -0.816406 5.578125 -0.640625 C 5.347656 -0.472656 5.109375 -0.332031 4.859375 -0.21875 C 4.609375 -0.101562 4.34375 -0.015625 4.0625 0.046875 C 3.78125 0.109375 3.46875 0.140625 3.125 0.140625 C 2.769531 0.140625 2.4375 0.09375 2.125 0 C 1.820312 -0.101562 1.554688 -0.25 1.328125 -0.4375 C 1.097656 -0.632812 0.914062 -0.882812 0.78125 -1.1875 C 0.644531 -1.488281 0.578125 -1.847656 0.578125 -2.265625 C 0.578125 -2.617188 0.675781 -2.957031 0.875 -3.28125 C 1.070312 -3.613281 1.390625 -3.90625 1.828125 -4.15625 C 2.265625 -4.414062 2.835938 -4.628906 3.546875 -4.796875 C 4.253906 -4.960938 5.125 -5.054688 6.15625 -5.078125 L 6.15625 -5.78125 C 6.15625 -6.488281 6.003906 -7.019531 5.703125 -7.375 C 5.398438 -7.738281 4.957031 -7.921875 4.375 -7.921875 C 3.976562 -7.921875 3.644531 -7.867188 3.375 -7.765625 C 3.113281 -7.671875 2.882812 -7.5625 2.6875 -7.4375 C 2.5 -7.320312 2.332031 -7.210938 2.1875 -7.109375 C 2.050781 -7.015625 1.914062 -6.96875 1.78125 -6.96875 C 1.675781 -6.96875 1.582031 -6.992188 1.5 -7.046875 C 1.425781 -7.109375 1.363281 -7.179688 1.3125 -7.265625 Z M 1.03125 -7.765625 "/></g></g></g><g fill="#1f77b4" fill-opacity="1"><g transform="translate(40.028865, 16.812753)"><g><path d="M 7.15625 -6.890625 C 6.851562 -7.285156 6.53125 -7.5625 6.1875 -7.71875 C 5.84375 -7.882812 5.457031 -7.96875 5.03125 -7.96875 C 4.1875 -7.96875 3.535156 -7.664062 3.078125 -7.0625 C 2.628906 -6.457031 2.40625 -5.597656 2.40625 -4.484375 C 2.40625 -3.898438 2.457031 -3.394531 2.5625 -2.96875 C 2.664062 -2.550781 2.8125 -2.207031 3 -1.9375 C 3.195312 -1.664062 3.4375 -1.46875 3.71875 -1.34375 C 4.007812 -1.21875 4.335938 -1.15625 4.703125 -1.15625 C 5.222656 -1.15625 5.675781 -1.273438 6.0625 -1.515625 C 6.457031 -1.753906 6.820312 -2.09375 7.15625 -2.53125 Z M 8.75 -13.15625 L 8.75 0 L 7.796875 0 C 7.566406 0 7.421875 -0.109375 7.359375 -0.328125 L 7.21875 -1.421875 C 6.832031 -0.960938 6.390625 -0.585938 5.890625 -0.296875 C 5.398438 -0.015625 4.832031 0.125 4.1875 0.125 C 3.664062 0.125 3.191406 0.0234375 2.765625 -0.171875 C 2.347656 -0.367188 1.988281 -0.660156 1.6875 -1.046875 C 1.394531 -1.441406 1.164062 -1.925781 1 -2.5 C 0.84375 -3.070312 0.765625 -3.734375 0.765625 -4.484375 C 0.765625 -5.148438 0.851562 -5.769531 1.03125 -6.34375 C 1.207031 -6.925781 1.460938 -7.425781 1.796875 -7.84375 C 2.128906 -8.269531 2.539062 -8.601562 3.03125 -8.84375 C 3.519531 -9.082031 4.066406 -9.203125 4.671875 -9.203125 C 5.222656 -9.203125 5.695312 -9.109375 6.09375 -8.921875 C 6.488281 -8.734375 6.84375 -8.472656 7.15625 -8.140625 L 7.15625 -13.15625 Z M 8.75 -13.15625 "/></g></g></g><g fill="#1f77b4" fill-opacity="1"><g transform="translate(50.027315, 16.812753)"><g><path d="M 7.3125 -5.515625 C 7.3125 -5.878906 7.257812 -6.210938 7.15625 -6.515625 C 7.050781 -6.828125 6.898438 -7.09375 6.703125 -7.3125 C 6.503906 -7.539062 6.257812 -7.710938 5.96875 -7.828125 C 5.6875 -7.953125 5.363281 -8.015625 5 -8.015625 C 4.238281 -8.015625 3.632812 -7.789062 3.1875 -7.34375 C 2.75 -6.90625 2.472656 -6.296875 2.359375 -5.515625 Z M 8.59375 -1.265625 C 8.394531 -1.023438 8.160156 -0.816406 7.890625 -0.640625 C 7.617188 -0.472656 7.328125 -0.332031 7.015625 -0.21875 C 6.703125 -0.101562 6.378906 -0.0195312 6.046875 0.03125 C 5.710938 0.09375 5.378906 0.125 5.046875 0.125 C 4.421875 0.125 3.84375 0.0195312 3.3125 -0.1875 C 2.789062 -0.40625 2.335938 -0.71875 1.953125 -1.125 C 1.578125 -1.53125 1.28125 -2.03125 1.0625 -2.625 C 0.84375 -3.226562 0.734375 -3.921875 0.734375 -4.703125 C 0.734375 -5.335938 0.832031 -5.925781 1.03125 -6.46875 C 1.226562 -7.019531 1.503906 -7.492188 1.859375 -7.890625 C 2.222656 -8.296875 2.664062 -8.613281 3.1875 -8.84375 C 3.71875 -9.070312 4.3125 -9.1875 4.96875 -9.1875 C 5.507812 -9.1875 6.007812 -9.09375 6.46875 -8.90625 C 6.925781 -8.726562 7.320312 -8.46875 7.65625 -8.125 C 8 -7.78125 8.265625 -7.359375 8.453125 -6.859375 C 8.648438 -6.359375 8.75 -5.785156 8.75 -5.140625 C 8.75 -4.890625 8.71875 -4.722656 8.65625 -4.640625 C 8.601562 -4.554688 8.503906 -4.515625 8.359375 -4.515625 L 2.3125 -4.515625 C 2.332031 -3.941406 2.410156 -3.441406 2.546875 -3.015625 C 2.691406 -2.597656 2.890625 -2.25 3.140625 -1.96875 C 3.390625 -1.6875 3.6875 -1.472656 4.03125 -1.328125 C 4.375 -1.191406 4.757812 -1.125 5.1875 -1.125 C 5.582031 -1.125 5.925781 -1.171875 6.21875 -1.265625 C 6.507812 -1.359375 6.757812 -1.457031 6.96875 -1.5625 C 7.175781 -1.664062 7.347656 -1.765625 7.484375 -1.859375 C 7.628906 -1.953125 7.75 -2 7.84375 -2 C 7.976562 -2 8.082031 -1.945312 8.15625 -1.84375 Z M 8.59375 -1.265625 "/></g></g></g><g fill="#1f77b4" fill-opacity="1"><g transform="translate(59.454425, 16.812753)"><g><path d="M 1.265625 0 L 1.265625 -9.046875 L 2.21875 -9.046875 C 2.4375 -9.046875 2.578125 -8.9375 2.640625 -8.71875 L 2.75 -7.78125 C 3.082031 -8.195312 3.457031 -8.535156 3.875 -8.796875 C 4.289062 -9.054688 4.773438 -9.1875 5.328125 -9.1875 C 5.929688 -9.1875 6.421875 -9.015625 6.796875 -8.671875 C 7.171875 -8.335938 7.441406 -7.878906 7.609375 -7.296875 C 7.742188 -7.628906 7.910156 -7.914062 8.109375 -8.15625 C 8.316406 -8.394531 8.550781 -8.585938 8.8125 -8.734375 C 9.070312 -8.890625 9.34375 -9.003906 9.625 -9.078125 C 9.914062 -9.148438 10.210938 -9.1875 10.515625 -9.1875 C 10.984375 -9.1875 11.40625 -9.109375 11.78125 -8.953125 C 12.15625 -8.804688 12.472656 -8.585938 12.734375 -8.296875 C 12.992188 -8.003906 13.191406 -7.644531 13.328125 -7.21875 C 13.460938 -6.789062 13.53125 -6.304688 13.53125 -5.765625 L 13.53125 0 L 11.9375 0 L 11.9375 -5.765625 C 11.9375 -6.472656 11.78125 -7.007812 11.46875 -7.375 C 11.15625 -7.738281 10.707031 -7.921875 10.125 -7.921875 C 9.863281 -7.921875 9.613281 -7.875 9.375 -7.78125 C 9.144531 -7.6875 8.9375 -7.550781 8.75 -7.375 C 8.570312 -7.195312 8.429688 -6.972656 8.328125 -6.703125 C 8.222656 -6.429688 8.171875 -6.117188 8.171875 -5.765625 L 8.171875 0 L 6.578125 0 L 6.578125 -5.765625 C 6.578125 -6.484375 6.429688 -7.019531 6.140625 -7.375 C 5.847656 -7.738281 5.421875 -7.921875 4.859375 -7.921875 C 4.472656 -7.921875 4.113281 -7.8125 3.78125 -7.59375 C 3.445312 -7.382812 3.140625 -7.097656 2.859375 -6.734375 L 2.859375 0 Z M 1.265625 0 "/></g></g></g><g fill="#1f77b4" fill-opacity="1"><g transform="translate(74.139651, 16.812753)"><g><path d="M 2.9375 -9.046875 L 2.9375 0 L 1.34375 0 L 1.34375 -9.046875 Z M 3.28125 -11.890625 C 3.28125 -11.734375 3.25 -11.585938 3.1875 -11.453125 C 3.125 -11.316406 3.039062 -11.195312 2.9375 -11.09375 C 2.832031 -10.988281 2.707031 -10.90625 2.5625 -10.84375 C 2.425781 -10.789062 2.28125 -10.765625 2.125 -10.765625 C 1.96875 -10.765625 1.820312 -10.789062 1.6875 -10.84375 C 1.550781 -10.90625 1.429688 -10.988281 1.328125 -11.09375 C 1.234375 -11.195312 1.15625 -11.316406 1.09375 -11.453125 C 1.039062 -11.585938 1.015625 -11.734375 1.015625 -11.890625 C 1.015625 -12.046875 1.039062 -12.191406 1.09375 -12.328125 C 1.15625 -12.460938 1.234375 -12.582031 1.328125 -12.6875 C 1.429688 -12.789062 1.550781 -12.875 1.6875 -12.9375 C 1.820312 -13 1.96875 -13.03125 2.125 -13.03125 C 2.28125 -13.03125 2.425781 -13 2.5625 -12.9375 C 2.707031 -12.875 2.832031 -12.789062 2.9375 -12.6875 C 3.039062 -12.582031 3.125 -12.460938 3.1875 -12.328125 C 3.25 -12.191406 3.28125 -12.046875 3.28125 -11.890625 Z M 3.28125 -11.890625 "/></g></g></g><g fill="#1f77b4" fill-opacity="1"><g transform="translate(78.424701, 16.812753)"><g><path d="M 7.546875 -7.4375 C 7.503906 -7.375 7.457031 -7.320312 7.40625 -7.28125 C 7.363281 -7.25 7.300781 -7.234375 7.21875 -7.234375 C 7.125 -7.234375 7.023438 -7.269531 6.921875 -7.34375 C 6.816406 -7.414062 6.679688 -7.492188 6.515625 -7.578125 C 6.359375 -7.671875 6.164062 -7.753906 5.9375 -7.828125 C 5.707031 -7.910156 5.425781 -7.953125 5.09375 -7.953125 C 4.644531 -7.953125 4.25 -7.867188 3.90625 -7.703125 C 3.570312 -7.546875 3.289062 -7.316406 3.0625 -7.015625 C 2.832031 -6.722656 2.660156 -6.363281 2.546875 -5.9375 C 2.429688 -5.519531 2.375 -5.050781 2.375 -4.53125 C 2.375 -3.976562 2.4375 -3.488281 2.5625 -3.0625 C 2.6875 -2.632812 2.863281 -2.273438 3.09375 -1.984375 C 3.320312 -1.703125 3.597656 -1.484375 3.921875 -1.328125 C 4.242188 -1.179688 4.609375 -1.109375 5.015625 -1.109375 C 5.398438 -1.109375 5.71875 -1.15625 5.96875 -1.25 C 6.21875 -1.34375 6.425781 -1.441406 6.59375 -1.546875 C 6.757812 -1.660156 6.894531 -1.765625 7 -1.859375 C 7.113281 -1.953125 7.222656 -2 7.328125 -2 C 7.460938 -2 7.566406 -1.945312 7.640625 -1.84375 L 8.078125 -1.265625 C 7.878906 -1.023438 7.65625 -0.816406 7.40625 -0.640625 C 7.15625 -0.472656 6.882812 -0.328125 6.59375 -0.203125 C 6.3125 -0.0859375 6.007812 -0.00390625 5.6875 0.046875 C 5.375 0.0976562 5.054688 0.125 4.734375 0.125 C 4.171875 0.125 3.644531 0.0195312 3.15625 -0.1875 C 2.664062 -0.394531 2.242188 -0.695312 1.890625 -1.09375 C 1.535156 -1.488281 1.253906 -1.972656 1.046875 -2.546875 C 0.847656 -3.128906 0.75 -3.789062 0.75 -4.53125 C 0.75 -5.195312 0.84375 -5.816406 1.03125 -6.390625 C 1.21875 -6.960938 1.488281 -7.453125 1.84375 -7.859375 C 2.207031 -8.273438 2.648438 -8.597656 3.171875 -8.828125 C 3.703125 -9.066406 4.3125 -9.1875 5 -9.1875 C 5.632812 -9.1875 6.191406 -9.082031 6.671875 -8.875 C 7.160156 -8.675781 7.59375 -8.390625 7.96875 -8.015625 Z M 7.546875 -7.4375 "/></g></g></g><g fill="#ffffff" fill-opacity="0.4"><g transform="translate(18.116049, 33.430262)"><g><path d="M 8.171875 -10.796875 C 8.117188 -10.703125 8.0625 -10.632812 8 -10.59375 C 7.9375 -10.550781 7.863281 -10.53125 7.78125 -10.53125 C 7.675781 -10.53125 7.554688 -10.578125 7.421875 -10.671875 C 7.285156 -10.773438 7.113281 -10.890625 6.90625 -11.015625 C 6.695312 -11.140625 6.445312 -11.25 6.15625 -11.34375 C 5.875 -11.445312 5.523438 -11.5 5.109375 -11.5 C 4.722656 -11.5 4.382812 -11.445312 4.09375 -11.34375 C 3.800781 -11.238281 3.550781 -11.097656 3.34375 -10.921875 C 3.144531 -10.742188 2.992188 -10.535156 2.890625 -10.296875 C 2.796875 -10.054688 2.75 -9.796875 2.75 -9.515625 C 2.75 -9.148438 2.835938 -8.847656 3.015625 -8.609375 C 3.191406 -8.378906 3.421875 -8.179688 3.703125 -8.015625 C 3.992188 -7.847656 4.320312 -7.703125 4.6875 -7.578125 C 5.050781 -7.460938 5.425781 -7.335938 5.8125 -7.203125 C 6.195312 -7.078125 6.570312 -6.929688 6.9375 -6.765625 C 7.300781 -6.597656 7.628906 -6.390625 7.921875 -6.140625 C 8.210938 -5.890625 8.445312 -5.582031 8.625 -5.21875 C 8.800781 -4.851562 8.890625 -4.410156 8.890625 -3.890625 C 8.890625 -3.328125 8.789062 -2.800781 8.59375 -2.3125 C 8.40625 -1.820312 8.128906 -1.394531 7.765625 -1.03125 C 7.398438 -0.664062 6.945312 -0.378906 6.40625 -0.171875 C 5.875 0.0351562 5.269531 0.140625 4.59375 0.140625 C 3.757812 0.140625 3.003906 -0.0078125 2.328125 -0.3125 C 1.648438 -0.613281 1.070312 -1.019531 0.59375 -1.53125 L 1.09375 -2.34375 C 1.132812 -2.414062 1.1875 -2.472656 1.25 -2.515625 C 1.320312 -2.554688 1.398438 -2.578125 1.484375 -2.578125 C 1.566406 -2.578125 1.65625 -2.546875 1.75 -2.484375 C 1.851562 -2.421875 1.96875 -2.34375 2.09375 -2.25 C 2.21875 -2.15625 2.359375 -2.050781 2.515625 -1.9375 C 2.679688 -1.820312 2.863281 -1.71875 3.0625 -1.625 C 3.269531 -1.53125 3.503906 -1.453125 3.765625 -1.390625 C 4.023438 -1.328125 4.320312 -1.296875 4.65625 -1.296875 C 5.0625 -1.296875 5.425781 -1.351562 5.75 -1.46875 C 6.070312 -1.582031 6.34375 -1.738281 6.5625 -1.9375 C 6.789062 -2.144531 6.960938 -2.390625 7.078125 -2.671875 C 7.203125 -2.960938 7.265625 -3.285156 7.265625 -3.640625 C 7.265625 -4.023438 7.175781 -4.335938 7 -4.578125 C 6.820312 -4.828125 6.585938 -5.035156 6.296875 -5.203125 C 6.015625 -5.367188 5.6875 -5.507812 5.3125 -5.625 C 4.945312 -5.738281 4.570312 -5.859375 4.1875 -5.984375 C 3.8125 -6.109375 3.4375 -6.25 3.0625 -6.40625 C 2.695312 -6.570312 2.367188 -6.78125 2.078125 -7.03125 C 1.796875 -7.289062 1.566406 -7.613281 1.390625 -8 C 1.222656 -8.382812 1.140625 -8.859375 1.140625 -9.421875 C 1.140625 -9.867188 1.222656 -10.304688 1.390625 -10.734375 C 1.566406 -11.160156 1.820312 -11.535156 2.15625 -11.859375 C 2.5 -12.179688 2.914062 -12.441406 3.40625 -12.640625 C 3.894531 -12.835938 4.457031 -12.9375 5.09375 -12.9375 C 5.8125 -12.9375 6.460938 -12.820312 7.046875 -12.59375 C 7.628906 -12.375 8.144531 -12.050781 8.59375 -11.625 Z M 8.171875 -10.796875 "/></g></g></g><g fill="#ffffff" fill-opacity="0.4"><g transform="translate(27.802051, 33.430262)"><g><path d="M 7.3125 -5.515625 C 7.3125 -5.878906 7.257812 -6.210938 7.15625 -6.515625 C 7.050781 -6.828125 6.898438 -7.09375 6.703125 -7.3125 C 6.503906 -7.539062 6.257812 -7.710938 5.96875 -7.828125 C 5.6875 -7.953125 5.363281 -8.015625 5 -8.015625 C 4.238281 -8.015625 3.632812 -7.789062 3.1875 -7.34375 C 2.75 -6.90625 2.472656 -6.296875 2.359375 -5.515625 Z M 8.59375 -1.265625 C 8.394531 -1.023438 8.160156 -0.816406 7.890625 -0.640625 C 7.617188 -0.472656 7.328125 -0.332031 7.015625 -0.21875 C 6.703125 -0.101562 6.378906 -0.0195312 6.046875 0.03125 C 5.710938 0.09375 5.378906 0.125 5.046875 0.125 C 4.421875 0.125 3.84375 0.0195312 3.3125 -0.1875 C 2.789062 -0.40625 2.335938 -0.71875 1.953125 -1.125 C 1.578125 -1.53125 1.28125 -2.03125 1.0625 -2.625 C 0.84375 -3.226562 0.734375 -3.921875 0.734375 -4.703125 C 0.734375 -5.335938 0.832031 -5.925781 1.03125 -6.46875 C 1.226562 -7.019531 1.503906 -7.492188 1.859375 -7.890625 C 2.222656 -8.296875 2.664062 -8.613281 3.1875 -8.84375 C 3.71875 -9.070312 4.3125 -9.1875 4.96875 -9.1875 C 5.507812 -9.1875 6.007812 -9.09375 6.46875 -8.90625 C 6.925781 -8.726562 7.320312 -8.46875 7.65625 -8.125 C 8 -7.78125 8.265625 -7.359375 8.453125 -6.859375 C 8.648438 -6.359375 8.75 -5.785156 8.75 -5.140625 C 8.75 -4.890625 8.71875 -4.722656 8.65625 -4.640625 C 8.601562 -4.554688 8.503906 -4.515625 8.359375 -4.515625 L 2.3125 -4.515625 C 2.332031 -3.941406 2.410156 -3.441406 2.546875 -3.015625 C 2.691406 -2.597656 2.890625 -2.25 3.140625 -1.96875 C 3.390625 -1.6875 3.6875 -1.472656 4.03125 -1.328125 C 4.375 -1.191406 4.757812 -1.125 5.1875 -1.125 C 5.582031 -1.125 5.925781 -1.171875 6.21875 -1.265625 C 6.507812 -1.359375 6.757812 -1.457031 6.96875 -1.5625 C 7.175781 -1.664062 7.347656 -1.765625 7.484375 -1.859375 C 7.628906 -1.953125 7.75 -2 7.84375 -2 C 7.976562 -2 8.082031 -1.945312 8.15625 -1.84375 Z M 8.59375 -1.265625 "/></g></g></g><g fill="#ffffff" fill-opacity="0.4"><g transform="translate(37.229161, 33.430262)"><g><path d="M 2.765625 -7.234375 C 3.054688 -7.847656 3.410156 -8.328125 3.828125 -8.671875 C 4.242188 -9.023438 4.75 -9.203125 5.34375 -9.203125 C 5.539062 -9.203125 5.722656 -9.179688 5.890625 -9.140625 C 6.066406 -9.097656 6.222656 -9.035156 6.359375 -8.953125 L 6.25 -7.765625 C 6.21875 -7.609375 6.128906 -7.53125 5.984375 -7.53125 C 5.898438 -7.53125 5.773438 -7.546875 5.609375 -7.578125 C 5.453125 -7.617188 5.273438 -7.640625 5.078125 -7.640625 C 4.785156 -7.640625 4.523438 -7.597656 4.296875 -7.515625 C 4.078125 -7.429688 3.878906 -7.304688 3.703125 -7.140625 C 3.535156 -6.984375 3.378906 -6.78125 3.234375 -6.53125 C 3.097656 -6.289062 2.972656 -6.019531 2.859375 -5.71875 L 2.859375 0 L 1.265625 0 L 1.265625 -9.046875 L 2.171875 -9.046875 C 2.335938 -9.046875 2.453125 -9.007812 2.515625 -8.9375 C 2.585938 -8.875 2.632812 -8.765625 2.65625 -8.609375 Z M 2.765625 -7.234375 "/></g></g></g><g fill="#ffffff" fill-opacity="0.4"><g transform="translate(43.728158, 33.430262)"><g><path d="M 9.015625 -9.046875 L 5.328125 0 L 3.890625 0 L 0.203125 -9.046875 L 1.5 -9.046875 C 1.632812 -9.046875 1.742188 -9.007812 1.828125 -8.9375 C 1.910156 -8.875 1.960938 -8.800781 1.984375 -8.71875 L 4.28125 -2.890625 C 4.351562 -2.671875 4.414062 -2.457031 4.46875 -2.25 C 4.519531 -2.039062 4.570312 -1.832031 4.625 -1.625 C 4.675781 -1.832031 4.726562 -2.039062 4.78125 -2.25 C 4.832031 -2.457031 4.894531 -2.671875 4.96875 -2.890625 L 7.296875 -8.71875 C 7.328125 -8.8125 7.382812 -8.890625 7.46875 -8.953125 C 7.550781 -9.015625 7.648438 -9.046875 7.765625 -9.046875 Z M 9.015625 -9.046875 "/></g></g></g><g fill="#ffffff" fill-opacity="0.4"><g transform="translate(52.941021, 33.430262)"><g><path d="M 2.9375 -9.046875 L 2.9375 0 L 1.34375 0 L 1.34375 -9.046875 Z M 3.28125 -11.890625 C 3.28125 -11.734375 3.25 -11.585938 3.1875 -11.453125 C 3.125 -11.316406 3.039062 -11.195312 2.9375 -11.09375 C 2.832031 -10.988281 2.707031 -10.90625 2.5625 -10.84375 C 2.425781 -10.789062 2.28125 -10.765625 2.125 -10.765625 C 1.96875 -10.765625 1.820312 -10.789062 1.6875 -10.84375 C 1.550781 -10.90625 1.429688 -10.988281 1.328125 -11.09375 C 1.234375 -11.195312 1.15625 -11.316406 1.09375 -11.453125 C 1.039062 -11.585938 1.015625 -11.734375 1.015625 -11.890625 C 1.015625 -12.046875 1.039062 -12.191406 1.09375 -12.328125 C 1.15625 -12.460938 1.234375 -12.582031 1.328125 -12.6875 C 1.429688 -12.789062 1.550781 -12.875 1.6875 -12.9375 C 1.820312 -13 1.96875 -13.03125 2.125 -13.03125 C 2.28125 -13.03125 2.425781 -13 2.5625 -12.9375 C 2.707031 -12.875 2.832031 -12.789062 2.9375 -12.6875 C 3.039062 -12.582031 3.125 -12.460938 3.1875 -12.328125 C 3.25 -12.191406 3.28125 -12.046875 3.28125 -11.890625 Z M 3.28125 -11.890625 "/></g></g></g><g fill="#ffffff" fill-opacity="0.4"><g transform="translate(57.226071, 33.430262)"><g><path d="M 7.546875 -7.4375 C 7.503906 -7.375 7.457031 -7.320312 7.40625 -7.28125 C 7.363281 -7.25 7.300781 -7.234375 7.21875 -7.234375 C 7.125 -7.234375 7.023438 -7.269531 6.921875 -7.34375 C 6.816406 -7.414062 6.679688 -7.492188 6.515625 -7.578125 C 6.359375 -7.671875 6.164062 -7.753906 5.9375 -7.828125 C 5.707031 -7.910156 5.425781 -7.953125 5.09375 -7.953125 C 4.644531 -7.953125 4.25 -7.867188 3.90625 -7.703125 C 3.570312 -7.546875 3.289062 -7.316406 3.0625 -7.015625 C 2.832031 -6.722656 2.660156 -6.363281 2.546875 -5.9375 C 2.429688 -5.519531 2.375 -5.050781 2.375 -4.53125 C 2.375 -3.976562 2.4375 -3.488281 2.5625 -3.0625 C 2.6875 -2.632812 2.863281 -2.273438 3.09375 -1.984375 C 3.320312 -1.703125 3.597656 -1.484375 3.921875 -1.328125 C 4.242188 -1.179688 4.609375 -1.109375 5.015625 -1.109375 C 5.398438 -1.109375 5.71875 -1.15625 5.96875 -1.25 C 6.21875 -1.34375 6.425781 -1.441406 6.59375 -1.546875 C 6.757812 -1.660156 6.894531 -1.765625 7 -1.859375 C 7.113281 -1.953125 7.222656 -2 7.328125 -2 C 7.460938 -2 7.566406 -1.945312 7.640625 -1.84375 L 8.078125 -1.265625 C 7.878906 -1.023438 7.65625 -0.816406 7.40625 -0.640625 C 7.15625 -0.472656 6.882812 -0.328125 6.59375 -0.203125 C 6.3125 -0.0859375 6.007812 -0.00390625 5.6875 0.046875 C 5.375 0.0976562 5.054688 0.125 4.734375 0.125 C 4.171875 0.125 3.644531 0.0195312 3.15625 -0.1875 C 2.664062 -0.394531 2.242188 -0.695312 1.890625 -1.09375 C 1.535156 -1.488281 1.253906 -1.972656 1.046875 -2.546875 C 0.847656 -3.128906 0.75 -3.789062 0.75 -4.53125 C 0.75 -5.195312 0.84375 -5.816406 1.03125 -6.390625 C 1.21875 -6.960938 1.488281 -7.453125 1.84375 -7.859375 C 2.207031 -8.273438 2.648438 -8.597656 3.171875 -8.828125 C 3.703125 -9.066406 4.3125 -9.1875 5 -9.1875 C 5.632812 -9.1875 6.191406 -9.082031 6.671875 -8.875 C 7.160156 -8.675781 7.59375 -8.390625 7.96875 -8.015625 Z M 7.546875 -7.4375 "/></g></g></g><g fill="#ffffff" fill-opacity="0.4"><g transform="translate(65.751537, 33.430262)"><g><path d="M 7.3125 -5.515625 C 7.3125 -5.878906 7.257812 -6.210938 7.15625 -6.515625 C 7.050781 -6.828125 6.898438 -7.09375 6.703125 -7.3125 C 6.503906 -7.539062 6.257812 -7.710938 5.96875 -7.828125 C 5.6875 -7.953125 5.363281 -8.015625 5 -8.015625 C 4.238281 -8.015625 3.632812 -7.789062 3.1875 -7.34375 C 2.75 -6.90625 2.472656 -6.296875 2.359375 -5.515625 Z M 8.59375 -1.265625 C 8.394531 -1.023438 8.160156 -0.816406 7.890625 -0.640625 C 7.617188 -0.472656 7.328125 -0.332031 7.015625 -0.21875 C 6.703125 -0.101562 6.378906 -0.0195312 6.046875 0.03125 C 5.710938 0.09375 5.378906 0.125 5.046875 0.125 C 4.421875 0.125 3.84375 0.0195312 3.3125 -0.1875 C 2.789062 -0.40625 2.335938 -0.71875 1.953125 -1.125 C 1.578125 -1.53125 1.28125 -2.03125 1.0625 -2.625 C 0.84375 -3.226562 0.734375 -3.921875 0.734375 -4.703125 C 0.734375 -5.335938 0.832031 -5.925781 1.03125 -6.46875 C 1.226562 -7.019531 1.503906 -7.492188 1.859375 -7.890625 C 2.222656 -8.296875 2.664062 -8.613281 3.1875 -8.84375 C 3.71875 -9.070312 4.3125 -9.1875 4.96875 -9.1875 C 5.507812 -9.1875 6.007812 -9.09375 6.46875 -8.90625 C 6.925781 -8.726562 7.320312 -8.46875 7.65625 -8.125 C 8 -7.78125 8.265625 -7.359375 8.453125 -6.859375 C 8.648438 -6.359375 8.75 -5.785156 8.75 -5.140625 C 8.75 -4.890625 8.71875 -4.722656 8.65625 -4.640625 C 8.601562 -4.554688 8.503906 -4.515625 8.359375 -4.515625 L 2.3125 -4.515625 C 2.332031 -3.941406 2.410156 -3.441406 2.546875 -3.015625 C 2.691406 -2.597656 2.890625 -2.25 3.140625 -1.96875 C 3.390625 -1.6875 3.6875 -1.472656 4.03125 -1.328125 C 4.375 -1.191406 4.757812 -1.125 5.1875 -1.125 C 5.582031 -1.125 5.925781 -1.171875 6.21875 -1.265625 C 6.507812 -1.359375 6.757812 -1.457031 6.96875 -1.5625 C 7.175781 -1.664062 7.347656 -1.765625 7.484375 -1.859375 C 7.628906 -1.953125 7.75 -2 7.84375 -2 C 7.976562 -2 8.082031 -1.945312 8.15625 -1.84375 Z M 8.59375 -1.265625 "/></g></g></g><g fill="#a6a6a6" fill-opacity="1"><g transform="translate(19.157822, 33.030363)"><g><path d="M 8.171875 -10.796875 C 8.117188 -10.703125 8.0625 -10.632812 8 -10.59375 C 7.9375 -10.550781 7.863281 -10.53125 7.78125 -10.53125 C 7.675781 -10.53125 7.554688 -10.578125 7.421875 -10.671875 C 7.285156 -10.773438 7.113281 -10.890625 6.90625 -11.015625 C 6.695312 -11.140625 6.445312 -11.25 6.15625 -11.34375 C 5.875 -11.445312 5.523438 -11.5 5.109375 -11.5 C 4.722656 -11.5 4.382812 -11.445312 4.09375 -11.34375 C 3.800781 -11.238281 3.550781 -11.097656 3.34375 -10.921875 C 3.144531 -10.742188 2.992188 -10.535156 2.890625 -10.296875 C 2.796875 -10.054688 2.75 -9.796875 2.75 -9.515625 C 2.75 -9.148438 2.835938 -8.847656 3.015625 -8.609375 C 3.191406 -8.378906 3.421875 -8.179688 3.703125 -8.015625 C 3.992188 -7.847656 4.320312 -7.703125 4.6875 -7.578125 C 5.050781 -7.460938 5.425781 -7.335938 5.8125 -7.203125 C 6.195312 -7.078125 6.570312 -6.929688 6.9375 -6.765625 C 7.300781 -6.597656 7.628906 -6.390625 7.921875 -6.140625 C 8.210938 -5.890625 8.445312 -5.582031 8.625 -5.21875 C 8.800781 -4.851562 8.890625 -4.410156 8.890625 -3.890625 C 8.890625 -3.328125 8.789062 -2.800781 8.59375 -2.3125 C 8.40625 -1.820312 8.128906 -1.394531 7.765625 -1.03125 C 7.398438 -0.664062 6.945312 -0.378906 6.40625 -0.171875 C 5.875 0.0351562 5.269531 0.140625 4.59375 0.140625 C 3.757812 0.140625 3.003906 -0.0078125 2.328125 -0.3125 C 1.648438 -0.613281 1.070312 -1.019531 0.59375 -1.53125 L 1.09375 -2.34375 C 1.132812 -2.414062 1.1875 -2.472656 1.25 -2.515625 C 1.320312 -2.554688 1.398438 -2.578125 1.484375 -2.578125 C 1.566406 -2.578125 1.65625 -2.546875 1.75 -2.484375 C 1.851562 -2.421875 1.96875 -2.34375 2.09375 -2.25 C 2.21875 -2.15625 2.359375 -2.050781 2.515625 -1.9375 C 2.679688 -1.820312 2.863281 -1.71875 3.0625 -1.625 C 3.269531 -1.53125 3.503906 -1.453125 3.765625 -1.390625 C 4.023438 -1.328125 4.320312 -1.296875 4.65625 -1.296875 C 5.0625 -1.296875 5.425781 -1.351562 5.75 -1.46875 C 6.070312 -1.582031 6.34375 -1.738281 6.5625 -1.9375 C 6.789062 -2.144531 6.960938 -2.390625 7.078125 -2.671875 C 7.203125 -2.960938 7.265625 -3.285156 7.265625 -3.640625 C 7.265625 -4.023438 7.175781 -4.335938 7 -4.578125 C 6.820312 -4.828125 6.585938 -5.035156 6.296875 -5.203125 C 6.015625 -5.367188 5.6875 -5.507812 5.3125 -5.625 C 4.945312 -5.738281 4.570312 -5.859375 4.1875 -5.984375 C 3.8125 -6.109375 3.4375 -6.25 3.0625 -6.40625 C 2.695312 -6.570312 2.367188 -6.78125 2.078125 -7.03125 C 1.796875 -7.289062 1.566406 -7.613281 1.390625 -8 C 1.222656 -8.382812 1.140625 -8.859375 1.140625 -9.421875 C 1.140625 -9.867188 1.222656 -10.304688 1.390625 -10.734375 C 1.566406 -11.160156 1.820312 -11.535156 2.15625 -11.859375 C 2.5 -12.179688 2.914062 -12.441406 3.40625 -12.640625 C 3.894531 -12.835938 4.457031 -12.9375 5.09375 -12.9375 C 5.8125 -12.9375 6.460938 -12.820312 7.046875 -12.59375 C 7.628906 -12.375 8.144531 -12.050781 8.59375 -11.625 Z M 8.171875 -10.796875 "/></g></g></g><g fill="#a6a6a6" fill-opacity="1"><g transform="translate(28.843824, 33.030363)"><g><path d="M 7.3125 -5.515625 C 7.3125 -5.878906 7.257812 -6.210938 7.15625 -6.515625 C 7.050781 -6.828125 6.898438 -7.09375 6.703125 -7.3125 C 6.503906 -7.539062 6.257812 -7.710938 5.96875 -7.828125 C 5.6875 -7.953125 5.363281 -8.015625 5 -8.015625 C 4.238281 -8.015625 3.632812 -7.789062 3.1875 -7.34375 C 2.75 -6.90625 2.472656 -6.296875 2.359375 -5.515625 Z M 8.59375 -1.265625 C 8.394531 -1.023438 8.160156 -0.816406 7.890625 -0.640625 C 7.617188 -0.472656 7.328125 -0.332031 7.015625 -0.21875 C 6.703125 -0.101562 6.378906 -0.0195312 6.046875 0.03125 C 5.710938 0.09375 5.378906 0.125 5.046875 0.125 C 4.421875 0.125 3.84375 0.0195312 3.3125 -0.1875 C 2.789062 -0.40625 2.335938 -0.71875 1.953125 -1.125 C 1.578125 -1.53125 1.28125 -2.03125 1.0625 -2.625 C 0.84375 -3.226562 0.734375 -3.921875 0.734375 -4.703125 C 0.734375 -5.335938 0.832031 -5.925781 1.03125 -6.46875 C 1.226562 -7.019531 1.503906 -7.492188 1.859375 -7.890625 C 2.222656 -8.296875 2.664062 -8.613281 3.1875 -8.84375 C 3.71875 -9.070312 4.3125 -9.1875 4.96875 -9.1875 C 5.507812 -9.1875 6.007812 -9.09375 6.46875 -8.90625 C 6.925781 -8.726562 7.320312 -8.46875 7.65625 -8.125 C 8 -7.78125 8.265625 -7.359375 8.453125 -6.859375 C 8.648438 -6.359375 8.75 -5.785156 8.75 -5.140625 C 8.75 -4.890625 8.71875 -4.722656 8.65625 -4.640625 C 8.601562 -4.554688 8.503906 -4.515625 8.359375 -4.515625 L 2.3125 -4.515625 C 2.332031 -3.941406 2.410156 -3.441406 2.546875 -3.015625 C 2.691406 -2.597656 2.890625 -2.25 3.140625 -1.96875 C 3.390625 -1.6875 3.6875 -1.472656 4.03125 -1.328125 C 4.375 -1.191406 4.757812 -1.125 5.1875 -1.125 C 5.582031 -1.125 5.925781 -1.171875 6.21875 -1.265625 C 6.507812 -1.359375 6.757812 -1.457031 6.96875 -1.5625 C 7.175781 -1.664062 7.347656 -1.765625 7.484375 -1.859375 C 7.628906 -1.953125 7.75 -2 7.84375 -2 C 7.976562 -2 8.082031 -1.945312 8.15625 -1.84375 Z M 8.59375 -1.265625 "/></g></g></g><g fill="#a6a6a6" fill-opacity="1"><g transform="translate(38.270934, 33.030363)"><g><path d="M 2.765625 -7.234375 C 3.054688 -7.847656 3.410156 -8.328125 3.828125 -8.671875 C 4.242188 -9.023438 4.75 -9.203125 5.34375 -9.203125 C 5.539062 -9.203125 5.722656 -9.179688 5.890625 -9.140625 C 6.066406 -9.097656 6.222656 -9.035156 6.359375 -8.953125 L 6.25 -7.765625 C 6.21875 -7.609375 6.128906 -7.53125 5.984375 -7.53125 C 5.898438 -7.53125 5.773438 -7.546875 5.609375 -7.578125 C 5.453125 -7.617188 5.273438 -7.640625 5.078125 -7.640625 C 4.785156 -7.640625 4.523438 -7.597656 4.296875 -7.515625 C 4.078125 -7.429688 3.878906 -7.304688 3.703125 -7.140625 C 3.535156 -6.984375 3.378906 -6.78125 3.234375 -6.53125 C 3.097656 -6.289062 2.972656 -6.019531 2.859375 -5.71875 L 2.859375 0 L 1.265625 0 L 1.265625 -9.046875 L 2.171875 -9.046875 C 2.335938 -9.046875 2.453125 -9.007812 2.515625 -8.9375 C 2.585938 -8.875 2.632812 -8.765625 2.65625 -8.609375 Z M 2.765625 -7.234375 "/></g></g></g><g fill="#a6a6a6" fill-opacity="1"><g transform="translate(44.769932, 33.030363)"><g><path d="M 9.015625 -9.046875 L 5.328125 0 L 3.890625 0 L 0.203125 -9.046875 L 1.5 -9.046875 C 1.632812 -9.046875 1.742188 -9.007812 1.828125 -8.9375 C 1.910156 -8.875 1.960938 -8.800781 1.984375 -8.71875 L 4.28125 -2.890625 C 4.351562 -2.671875 4.414062 -2.457031 4.46875 -2.25 C 4.519531 -2.039062 4.570312 -1.832031 4.625 -1.625 C 4.675781 -1.832031 4.726562 -2.039062 4.78125 -2.25 C 4.832031 -2.457031 4.894531 -2.671875 4.96875 -2.890625 L 7.296875 -8.71875 C 7.328125 -8.8125 7.382812 -8.890625 7.46875 -8.953125 C 7.550781 -9.015625 7.648438 -9.046875 7.765625 -9.046875 Z M 9.015625 -9.046875 "/></g></g></g><g fill="#a6a6a6" fill-opacity="1"><g transform="translate(53.982794, 33.030363)"><g><path d="M 2.9375 -9.046875 L 2.9375 0 L 1.34375 0 L 1.34375 -9.046875 Z M 3.28125 -11.890625 C 3.28125 -11.734375 3.25 -11.585938 3.1875 -11.453125 C 3.125 -11.316406 3.039062 -11.195312 2.9375 -11.09375 C 2.832031 -10.988281 2.707031 -10.90625 2.5625 -10.84375 C 2.425781 -10.789062 2.28125 -10.765625 2.125 -10.765625 C 1.96875 -10.765625 1.820312 -10.789062 1.6875 -10.84375 C 1.550781 -10.90625 1.429688 -10.988281 1.328125 -11.09375 C 1.234375 -11.195312 1.15625 -11.316406 1.09375 -11.453125 C 1.039062 -11.585938 1.015625 -11.734375 1.015625 -11.890625 C 1.015625 -12.046875 1.039062 -12.191406 1.09375 -12.328125 C 1.15625 -12.460938 1.234375 -12.582031 1.328125 -12.6875 C 1.429688 -12.789062 1.550781 -12.875 1.6875 -12.9375 C 1.820312 -13 1.96875 -13.03125 2.125 -13.03125 C 2.28125 -13.03125 2.425781 -13 2.5625 -12.9375 C 2.707031 -12.875 2.832031 -12.789062 2.9375 -12.6875 C 3.039062 -12.582031 3.125 -12.460938 3.1875 -12.328125 C 3.25 -12.191406 3.28125 -12.046875 3.28125 -11.890625 Z M 3.28125 -11.890625 "/></g></g></g><g fill="#a6a6a6" fill-opacity="1"><g transform="translate(58.267844, 33.030363)"><g><path d="M 7.546875 -7.4375 C 7.503906 -7.375 7.457031 -7.320312 7.40625 -7.28125 C 7.363281 -7.25 7.300781 -7.234375 7.21875 -7.234375 C 7.125 -7.234375 7.023438 -7.269531 6.921875 -7.34375 C 6.816406 -7.414062 6.679688 -7.492188 6.515625 -7.578125 C 6.359375 -7.671875 6.164062 -7.753906 5.9375 -7.828125 C 5.707031 -7.910156 5.425781 -7.953125 5.09375 -7.953125 C 4.644531 -7.953125 4.25 -7.867188 3.90625 -7.703125 C 3.570312 -7.546875 3.289062 -7.316406 3.0625 -7.015625 C 2.832031 -6.722656 2.660156 -6.363281 2.546875 -5.9375 C 2.429688 -5.519531 2.375 -5.050781 2.375 -4.53125 C 2.375 -3.976562 2.4375 -3.488281 2.5625 -3.0625 C 2.6875 -2.632812 2.863281 -2.273438 3.09375 -1.984375 C 3.320312 -1.703125 3.597656 -1.484375 3.921875 -1.328125 C 4.242188 -1.179688 4.609375 -1.109375 5.015625 -1.109375 C 5.398438 -1.109375 5.71875 -1.15625 5.96875 -1.25 C 6.21875 -1.34375 6.425781 -1.441406 6.59375 -1.546875 C 6.757812 -1.660156 6.894531 -1.765625 7 -1.859375 C 7.113281 -1.953125 7.222656 -2 7.328125 -2 C 7.460938 -2 7.566406 -1.945312 7.640625 -1.84375 L 8.078125 -1.265625 C 7.878906 -1.023438 7.65625 -0.816406 7.40625 -0.640625 C 7.15625 -0.472656 6.882812 -0.328125 6.59375 -0.203125 C 6.3125 -0.0859375 6.007812 -0.00390625 5.6875 0.046875 C 5.375 0.0976562 5.054688 0.125 4.734375 0.125 C 4.171875 0.125 3.644531 0.0195312 3.15625 -0.1875 C 2.664062 -0.394531 2.242188 -0.695312 1.890625 -1.09375 C 1.535156 -1.488281 1.253906 -1.972656 1.046875 -2.546875 C 0.847656 -3.128906 0.75 -3.789062 0.75 -4.53125 C 0.75 -5.195312 0.84375 -5.816406 1.03125 -6.390625 C 1.21875 -6.960938 1.488281 -7.453125 1.84375 -7.859375 C 2.207031 -8.273438 2.648438 -8.597656 3.171875 -8.828125 C 3.703125 -9.066406 4.3125 -9.1875 5 -9.1875 C 5.632812 -9.1875 6.191406 -9.082031 6.671875 -8.875 C 7.160156 -8.675781 7.59375 -8.390625 7.96875 -8.015625 Z M 7.546875 -7.4375 "/></g></g></g><g fill="#a6a6a6" fill-opacity="1"><g transform="translate(66.79331, 33.030363)"><g><path d="M 7.3125 -5.515625 C 7.3125 -5.878906 7.257812 -6.210938 7.15625 -6.515625 C 7.050781 -6.828125 6.898438 -7.09375 6.703125 -7.3125 C 6.503906 -7.539062 6.257812 -7.710938 5.96875 -7.828125 C 5.6875 -7.953125 5.363281 -8.015625 5 -8.015625 C 4.238281 -8.015625 3.632812 -7.789062 3.1875 -7.34375 C 2.75 -6.90625 2.472656 -6.296875 2.359375 -5.515625 Z M 8.59375 -1.265625 C 8.394531 -1.023438 8.160156 -0.816406 7.890625 -0.640625 C 7.617188 -0.472656 7.328125 -0.332031 7.015625 -0.21875 C 6.703125 -0.101562 6.378906 -0.0195312 6.046875 0.03125 C 5.710938 0.09375 5.378906 0.125 5.046875 0.125 C 4.421875 0.125 3.84375 0.0195312 3.3125 -0.1875 C 2.789062 -0.40625 2.335938 -0.71875 1.953125 -1.125 C 1.578125 -1.53125 1.28125 -2.03125 1.0625 -2.625 C 0.84375 -3.226562 0.734375 -3.921875 0.734375 -4.703125 C 0.734375 -5.335938 0.832031 -5.925781 1.03125 -6.46875 C 1.226562 -7.019531 1.503906 -7.492188 1.859375 -7.890625 C 2.222656 -8.296875 2.664062 -8.613281 3.1875 -8.84375 C 3.71875 -9.070312 4.3125 -9.1875 4.96875 -9.1875 C 5.507812 -9.1875 6.007812 -9.09375 6.46875 -8.90625 C 6.925781 -8.726562 7.320312 -8.46875 7.65625 -8.125 C 8 -7.78125 8.265625 -7.359375 8.453125 -6.859375 C 8.648438 -6.359375 8.75 -5.785156 8.75 -5.140625 C 8.75 -4.890625 8.71875 -4.722656 8.65625 -4.640625 C 8.601562 -4.554688 8.503906 -4.515625 8.359375 -4.515625 L 2.3125 -4.515625 C 2.332031 -3.941406 2.410156 -3.441406 2.546875 -3.015625 C 2.691406 -2.597656 2.890625 -2.25 3.140625 -1.96875 C 3.390625 -1.6875 3.6875 -1.472656 4.03125 -1.328125 C 4.375 -1.191406 4.757812 -1.125 5.1875 -1.125 C 5.582031 -1.125 5.925781 -1.171875 6.21875 -1.265625 C 6.507812 -1.359375 6.757812 -1.457031 6.96875 -1.5625 C 7.175781 -1.664062 7.347656 -1.765625 7.484375 -1.859375 C 7.628906 -1.953125 7.75 -2 7.84375 -2 C 7.976562 -2 8.082031 -1.945312 8.15625 -1.84375 Z M 8.59375 -1.265625 "/></g></g></g></svg>