<svg xmlns="http://www.w3.org/2000/svg" xmlns:xlink="http://www.w3.org/1999/xlink" width="130" zoomAndPan="magnify" viewBox="0 0 97.5 37.5" height="50" preserveAspectRatio="xMidYMid meet" version="1.0"><defs><g/></defs><g fill="#1f77b4" fill-opacity="0.4"><g transform="translate(19.464567, 17.212652)"><g><path d="M 8.890625 -1.453125 L 8.890625 0 L 1.640625 0 L 1.640625 -12.796875 L 3.359375 -12.796875 L 3.359375 -1.453125 Z M 8.890625 -1.453125 "/></g></g></g><g fill="#1f77b4" fill-opacity="0.4"><g transform="translate(28.632784, 17.212652)"><g><path d="M 7.3125 -5.515625 C 7.3125 -5.878906 7.257812 -6.210938 7.15625 -6.515625 C 7.050781 -6.828125 6.898438 -7.09375 6.703125 -7.3125 C 6.503906 -7.539062 6.257812 -7.710938 5.96875 -7.828125 C 5.6875 -7.953125 5.363281 -8.015625 5 -8.015625 C 4.238281 -8.015625 3.632812 -7.789062 3.1875 -7.34375 C 2.75 -6.90625 2.472656 -6.296875 2.359375 -5.515625 Z M 8.59375 -1.265625 C 8.394531 -1.023438 8.160156 -0.816406 7.890625 -0.640625 C 7.617188 -0.472656 7.328125 -0.332031 7.015625 -0.21875 C 6.703125 -0.101562 6.378906 -0.0195312 6.046875 0.03125 C 5.710938 0.09375 5.378906 0.125 5.046875 0.125 C 4.421875 0.125 3.84375 0.0195312 3.3125 -0.1875 C 2.789062 -0.40625 2.335938 -0.71875 1.953125 -1.125 C 1.578125 -1.53125 1.28125 -2.03125 1.0625 -2.625 C 0.84375 -3.226562 0.734375 -3.921875 0.734375 -4.703125 C 0.734375 -5.335938 0.832031 -5.925781 1.03125 -6.46875 C 1.226562 -7.019531 1.503906 -7.492188 1.859375 -7.890625 C 2.222656 -8.296875 2.664062 -8.613281 3.1875 -8.84375 C 3.71875 -9.070312 4.3125 -9.1875 4.96875 -9.1875 C 5.507812 -9.1875 6.007812 -9.09375 6.46875 -8.90625 C 6.925781 -8.726562 7.320312 -8.46875 7.65625 -8.125 C 8 -7.78125 8.265625 -7.359375 8.453125 -6.859375 C 8.648438 -6.359375 8.75 -5.785156 8.75 -5.140625 C 8.75 -4.890625 8.71875 -4.722656 8.65625 -4.640625 C 8.601562 -4.554688 8.503906 -4.515625 8.359375 -4.515625 L 2.3125 -4.515625 C 2.332031 -3.941406 2.410156 -3.441406 2.546875 -3.015625 C 2.691406 -2.597656 2.890625 -2.25 3.140625 -1.96875 C 3.390625 -1.6875 3.6875 -1.472656 4.03125 -1.328125 C 4.375 -1.191406 4.757812 -1.125 5.1875 -1.125 C 5.582031 -1.125 5.925781 -1.171875 6.21875 -1.265625 C 6.507812 -1.359375 6.757812 -1.457031 6.96875 -1.5625 C 7.175781 -1.664062 7.347656 -1.765625 7.484375 -1.859375 C 7.628906 -1.953125 7.75 -2 7.84375 -2 C 7.976562 -2 8.082031 -1.945312 8.15625 -1.84375 Z M 8.59375 -1.265625 "/></g></g></g><g fill="#1f77b4" fill-opacity="0.4"><g transform="translate(38.059894, 17.212652)"><g><path d="M 2.9375 -9.046875 L 2.9375 0 L 1.34375 0 L 1.34375 -9.046875 Z M 3.28125 -11.890625 C 3.28125 -11.734375 3.25 -11.585938 3.1875 -11.453125 C 3.125 -11.316406 3.039062 -11.195312 2.9375 -11.09375 C 2.832031 -10.988281 2.707031 -10.90625 2.5625 -10.84375 C 2.425781 -10.789062 2.28125 -10.765625 2.125 -10.765625 C 1.96875 -10.765625 1.820312 -10.789062 1.6875 -10.84375 C 1.550781 -10.90625 1.429688 -10.988281 1.328125 -11.09375 C 1.234375 -11.195312 1.15625 -11.316406 1.09375 -11.453125 C 1.039062 -11.585938 1.015625 -11.734375 1.015625 -11.890625 C 1.015625 -12.046875 1.039062 -12.191406 1.09375 -12.328125 C 1.15625 -12.460938 1.234375 -12.582031 1.328125 -12.6875 C 1.429688 -12.789062 1.550781 -12.875 1.6875 -12.9375 C 1.820312 -13 1.96875 -13.03125 2.125 -13.03125 C 2.28125 -13.03125 2.425781 -13 2.5625 -12.9375 C 2.707031 -12.875 2.832031 -12.789062 2.9375 -12.6875 C 3.039062 -12.582031 3.125 -12.460938 3.1875 -12.328125 C 3.25 -12.191406 3.28125 -12.046875 3.28125 -11.890625 Z M 3.28125 -11.890625 "/></g></g></g><g fill="#1f77b4" fill-opacity="0.4"><g transform="translate(42.344944, 17.212652)"><g><path d="M 6.53125 -7.546875 C 6.457031 -7.421875 6.347656 -7.359375 6.203125 -7.359375 C 6.109375 -7.359375 6.003906 -7.390625 5.890625 -7.453125 C 5.773438 -7.515625 5.632812 -7.585938 5.46875 -7.671875 C 5.3125 -7.753906 5.117188 -7.828125 4.890625 -7.890625 C 4.660156 -7.960938 4.394531 -8 4.09375 -8 C 3.820312 -8 3.578125 -7.960938 3.359375 -7.890625 C 3.148438 -7.828125 2.96875 -7.734375 2.8125 -7.609375 C 2.664062 -7.492188 2.550781 -7.359375 2.46875 -7.203125 C 2.382812 -7.046875 2.34375 -6.875 2.34375 -6.6875 C 2.34375 -6.457031 2.410156 -6.265625 2.546875 -6.109375 C 2.679688 -5.953125 2.859375 -5.816406 3.078125 -5.703125 C 3.296875 -5.585938 3.546875 -5.488281 3.828125 -5.40625 C 4.109375 -5.320312 4.394531 -5.226562 4.6875 -5.125 C 4.988281 -5.03125 5.273438 -4.921875 5.546875 -4.796875 C 5.828125 -4.679688 6.078125 -4.535156 6.296875 -4.359375 C 6.523438 -4.179688 6.703125 -3.960938 6.828125 -3.703125 C 6.960938 -3.441406 7.03125 -3.128906 7.03125 -2.765625 C 7.03125 -2.347656 6.957031 -1.960938 6.8125 -1.609375 C 6.664062 -1.253906 6.445312 -0.945312 6.15625 -0.6875 C 5.863281 -0.425781 5.503906 -0.222656 5.078125 -0.078125 C 4.660156 0.0664062 4.171875 0.140625 3.609375 0.140625 C 2.984375 0.140625 2.414062 0.0390625 1.90625 -0.15625 C 1.394531 -0.363281 0.957031 -0.628906 0.59375 -0.953125 L 0.96875 -1.5625 C 1.019531 -1.632812 1.078125 -1.691406 1.140625 -1.734375 C 1.203125 -1.773438 1.285156 -1.796875 1.390625 -1.796875 C 1.492188 -1.796875 1.601562 -1.753906 1.71875 -1.671875 C 1.84375 -1.585938 1.988281 -1.492188 2.15625 -1.390625 C 2.332031 -1.296875 2.539062 -1.207031 2.78125 -1.125 C 3.03125 -1.039062 3.335938 -1 3.703125 -1 C 4.003906 -1 4.269531 -1.035156 4.5 -1.109375 C 4.738281 -1.191406 4.9375 -1.300781 5.09375 -1.4375 C 5.25 -1.582031 5.363281 -1.742188 5.4375 -1.921875 C 5.507812 -2.097656 5.546875 -2.285156 5.546875 -2.484375 C 5.546875 -2.734375 5.476562 -2.941406 5.34375 -3.109375 C 5.207031 -3.273438 5.03125 -3.414062 4.8125 -3.53125 C 4.59375 -3.644531 4.34375 -3.742188 4.0625 -3.828125 C 3.78125 -3.921875 3.488281 -4.015625 3.1875 -4.109375 C 2.894531 -4.203125 2.609375 -4.304688 2.328125 -4.421875 C 2.046875 -4.546875 1.789062 -4.703125 1.5625 -4.890625 C 1.34375 -5.078125 1.164062 -5.304688 1.03125 -5.578125 C 0.90625 -5.847656 0.84375 -6.175781 0.84375 -6.5625 C 0.84375 -6.90625 0.910156 -7.234375 1.046875 -7.546875 C 1.191406 -7.867188 1.398438 -8.148438 1.671875 -8.390625 C 1.953125 -8.640625 2.289062 -8.832031 2.6875 -8.96875 C 3.082031 -9.113281 3.535156 -9.1875 4.046875 -9.1875 C 4.648438 -9.1875 5.1875 -9.09375 5.65625 -8.90625 C 6.125 -8.71875 6.535156 -8.460938 6.890625 -8.140625 Z M 6.53125 -7.546875 "/></g></g></g><g fill="#1f77b4" fill-opacity="0.4"><g transform="translate(50.075889, 17.212652)"><g><path d="M 8.703125 -9.046875 L 8.703125 0 L 7.75 0 C 7.519531 0 7.378906 -0.109375 7.328125 -0.328125 L 7.203125 -1.296875 C 6.804688 -0.867188 6.363281 -0.519531 5.875 -0.25 C 5.382812 0.0078125 4.828125 0.140625 4.203125 0.140625 C 3.703125 0.140625 3.265625 0.0625 2.890625 -0.09375 C 2.515625 -0.257812 2.195312 -0.488281 1.9375 -0.78125 C 1.675781 -1.082031 1.484375 -1.445312 1.359375 -1.875 C 1.234375 -2.300781 1.171875 -2.769531 1.171875 -3.28125 L 1.171875 -9.046875 L 2.765625 -9.046875 L 2.765625 -3.28125 C 2.765625 -2.59375 2.921875 -2.0625 3.234375 -1.6875 C 3.546875 -1.3125 4.019531 -1.125 4.65625 -1.125 C 5.125 -1.125 5.5625 -1.234375 5.96875 -1.453125 C 6.382812 -1.679688 6.765625 -1.992188 7.109375 -2.390625 L 7.109375 -9.046875 Z M 8.703125 -9.046875 "/></g></g></g><g fill="#1f77b4" fill-opacity="0.4"><g transform="translate(60.029705, 17.212652)"><g><path d="M 2.765625 -7.234375 C 3.054688 -7.847656 3.410156 -8.328125 3.828125 -8.671875 C 4.242188 -9.023438 4.75 -9.203125 5.34375 -9.203125 C 5.539062 -9.203125 5.722656 -9.179688 5.890625 -9.140625 C 6.066406 -9.097656 6.222656 -9.035156 6.359375 -8.953125 L 6.25 -7.765625 C 6.21875 -7.609375 6.128906 -7.53125 5.984375 -7.53125 C 5.898438 -7.53125 5.773438 -7.546875 5.609375 -7.578125 C 5.453125 -7.617188 5.273438 -7.640625 5.078125 -7.640625 C 4.785156 -7.640625 4.523438 -7.597656 4.296875 -7.515625 C 4.078125 -7.429688 3.878906 -7.304688 3.703125 -7.140625 C 3.535156 -6.984375 3.378906 -6.78125 3.234375 -6.53125 C 3.097656 -6.289062 2.972656 -6.019531 2.859375 -5.71875 L 2.859375 0 L 1.265625 0 L 1.265625 -9.046875 L 2.171875 -9.046875 C 2.335938 -9.046875 2.453125 -9.007812 2.515625 -8.9375 C 2.585938 -8.875 2.632812 -8.765625 2.65625 -8.609375 Z M 2.765625 -7.234375 "/></g></g></g><g fill="#1f77b4" fill-opacity="0.4"><g transform="translate(66.528703, 17.212652)"><g><path d="M 7.3125 -5.515625 C 7.3125 -5.878906 7.257812 -6.210938 7.15625 -6.515625 C 7.050781 -6.828125 6.898438 -7.09375 6.703125 -7.3125 C 6.503906 -7.539062 6.257812 -7.710938 5.96875 -7.828125 C 5.6875 -7.953125 5.363281 -8.015625 5 -8.015625 C 4.238281 -8.015625 3.632812 -7.789062 3.1875 -7.34375 C 2.75 -6.90625 2.472656 -6.296875 2.359375 -5.515625 Z M 8.59375 -1.265625 C 8.394531 -1.023438 8.160156 -0.816406 7.890625 -0.640625 C 7.617188 -0.472656 7.328125 -0.332031 7.015625 -0.21875 C 6.703125 -0.101562 6.378906 -0.0195312 6.046875 0.03125 C 5.710938 0.09375 5.378906 0.125 5.046875 0.125 C 4.421875 0.125 3.84375 0.0195312 3.3125 -0.1875 C 2.789062 -0.40625 2.335938 -0.71875 1.953125 -1.125 C 1.578125 -1.53125 1.28125 -2.03125 1.0625 -2.625 C 0.84375 -3.226562 0.734375 -3.921875 0.734375 -4.703125 C 0.734375 -5.335938 0.832031 -5.925781 1.03125 -6.46875 C 1.226562 -7.019531 1.503906 -7.492188 1.859375 -7.890625 C 2.222656 -8.296875 2.664062 -8.613281 3.1875 -8.84375 C 3.71875 -9.070312 4.3125 -9.1875 4.96875 -9.1875 C 5.507812 -9.1875 6.007812 -9.09375 6.46875 -8.90625 C 6.925781 -8.726562 7.320312 -8.46875 7.65625 -8.125 C 8 -7.78125 8.265625 -7.359375 8.453125 -6.859375 C 8.648438 -6.359375 8.75 -5.785156 8.75 -5.140625 C 8.75 -4.890625 8.71875 -4.722656 8.65625 -4.640625 C 8.601562 -4.554688 8.503906 -4.515625 8.359375 -4.515625 L 2.3125 -4.515625 C 2.332031 -3.941406 2.410156 -3.441406 2.546875 -3.015625 C 2.691406 -2.597656 2.890625 -2.25 3.140625 -1.96875 C 3.390625 -1.6875 3.6875 -1.472656 4.03125 -1.328125 C 4.375 -1.191406 4.757812 -1.125 5.1875 -1.125 C 5.582031 -1.125 5.925781 -1.171875 6.21875 -1.265625 C 6.507812 -1.359375 6.757812 -1.457031 6.96875 -1.5625 C 7.175781 -1.664062 7.347656 -1.765625 7.484375 -1.859375 C 7.628906 -1.953125 7.75 -2 7.84375 -2 C 7.976562 -2 8.082031 -1.945312 8.15625 -1.84375 Z M 8.59375 -1.265625 "/></g></g></g><g fill="#1f77b4" fill-opacity="1"><g transform="translate(20.50634, 16.812753)"><g><path d="M 8.890625 -1.453125 L 8.890625 0 L 1.640625 0 L 1.640625 -12.796875 L 3.359375 -12.796875 L 3.359375 -1.453125 Z M 8.890625 -1.453125 "/></g></g></g><g fill="#1f77b4" fill-opacity="1"><g transform="translate(29.674558, 16.812753)"><g><path d="M 7.3125 -5.515625 C 7.3125 -5.878906 7.257812 -6.210938 7.15625 -6.515625 C 7.050781 -6.828125 6.898438 -7.09375 6.703125 -7.3125 C 6.503906 -7.539062 6.257812 -7.710938 5.96875 -7.828125 C 5.6875 -7.953125 5.363281 -8.015625 5 -8.015625 C 4.238281 -8.015625 3.632812 -7.789062 3.1875 -7.34375 C 2.75 -6.90625 2.472656 -6.296875 2.359375 -5.515625 Z M 8.59375 -1.265625 C 8.394531 -1.023438 8.160156 -0.816406 7.890625 -0.640625 C 7.617188 -0.472656 7.328125 -0.332031 7.015625 -0.21875 C 6.703125 -0.101562 6.378906 -0.0195312 6.046875 0.03125 C 5.710938 0.09375 5.378906 0.125 5.046875 0.125 C 4.421875 0.125 3.84375 0.0195312 3.3125 -0.1875 C 2.789062 -0.40625 2.335938 -0.71875 1.953125 -1.125 C 1.578125 -1.53125 1.28125 -2.03125 1.0625 -2.625 C 0.84375 -3.226562 0.734375 -3.921875 0.734375 -4.703125 C 0.734375 -5.335938 0.832031 -5.925781 1.03125 -6.46875 C 1.226562 -7.019531 1.503906 -7.492188 1.859375 -7.890625 C 2.222656 -8.296875 2.664062 -8.613281 3.1875 -8.84375 C 3.71875 -9.070312 4.3125 -9.1875 4.96875 -9.1875 C 5.507812 -9.1875 6.007812 -9.09375 6.46875 -8.90625 C 6.925781 -8.726562 7.320312 -8.46875 7.65625 -8.125 C 8 -7.78125 8.265625 -7.359375 8.453125 -6.859375 C 8.648438 -6.359375 8.75 -5.785156 8.75 -5.140625 C 8.75 -4.890625 8.71875 -4.722656 8.65625 -4.640625 C 8.601562 -4.554688 8.503906 -4.515625 8.359375 -4.515625 L 2.3125 -4.515625 C 2.332031 -3.941406 2.410156 -3.441406 2.546875 -3.015625 C 2.691406 -2.597656 2.890625 -2.25 3.140625 -1.96875 C 3.390625 -1.6875 3.6875 -1.472656 4.03125 -1.328125 C 4.375 -1.191406 4.757812 -1.125 5.1875 -1.125 C 5.582031 -1.125 5.925781 -1.171875 6.21875 -1.265625 C 6.507812 -1.359375 6.757812 -1.457031 6.96875 -1.5625 C 7.175781 -1.664062 7.347656 -1.765625 7.484375 -1.859375 C 7.628906 -1.953125 7.75 -2 7.84375 -2 C 7.976562 -2 8.082031 -1.945312 8.15625 -1.84375 Z M 8.59375 -1.265625 "/></g></g></g><g fill="#1f77b4" fill-opacity="1"><g transform="translate(39.101667, 16.812753)"><g><path d="M 2.9375 -9.046875 L 2.9375 0 L 1.34375 0 L 1.34375 -9.046875 Z M 3.28125 -11.890625 C 3.28125 -11.734375 3.25 -11.585938 3.1875 -11.453125 C 3.125 -11.316406 3.039062 -11.195312 2.9375 -11.09375 C 2.832031 -10.988281 2.707031 -10.90625 2.5625 -10.84375 C 2.425781 -10.789062 2.28125 -10.765625 2.125 -10.765625 C 1.96875 -10.765625 1.820312 -10.789062 1.6875 -10.84375 C 1.550781 -10.90625 1.429688 -10.988281 1.328125 -11.09375 C 1.234375 -11.195312 1.15625 -11.316406 1.09375 -11.453125 C 1.039062 -11.585938 1.015625 -11.734375 1.015625 -11.890625 C 1.015625 -12.046875 1.039062 -12.191406 1.09375 -12.328125 C 1.15625 -12.460938 1.234375 -12.582031 1.328125 -12.6875 C 1.429688 -12.789062 1.550781 -12.875 1.6875 -12.9375 C 1.820312 -13 1.96875 -13.03125 2.125 -13.03125 C 2.28125 -13.03125 2.425781 -13 2.5625 -12.9375 C 2.707031 -12.875 2.832031 -12.789062 2.9375 -12.6875 C 3.039062 -12.582031 3.125 -12.460938 3.1875 -12.328125 C 3.25 -12.191406 3.28125 -12.046875 3.28125 -11.890625 Z M 3.28125 -11.890625 "/></g></g></g><g fill="#1f77b4" fill-opacity="1"><g transform="translate(43.386717, 16.812753)"><g><path d="M 6.53125 -7.546875 C 6.457031 -7.421875 6.347656 -7.359375 6.203125 -7.359375 C 6.109375 -7.359375 6.003906 -7.390625 5.890625 -7.453125 C 5.773438 -7.515625 5.632812 -7.585938 5.46875 -7.671875 C 5.3125 -7.753906 5.117188 -7.828125 4.890625 -7.890625 C 4.660156 -7.960938 4.394531 -8 4.09375 -8 C 3.820312 -8 3.578125 -7.960938 3.359375 -7.890625 C 3.148438 -7.828125 2.96875 -7.734375 2.8125 -7.609375 C 2.664062 -7.492188 2.550781 -7.359375 2.46875 -7.203125 C 2.382812 -7.046875 2.34375 -6.875 2.34375 -6.6875 C 2.34375 -6.457031 2.410156 -6.265625 2.546875 -6.109375 C 2.679688 -5.953125 2.859375 -5.816406 3.078125 -5.703125 C 3.296875 -5.585938 3.546875 -5.488281 3.828125 -5.40625 C 4.109375 -5.320312 4.394531 -5.226562 4.6875 -5.125 C 4.988281 -5.03125 5.273438 -4.921875 5.546875 -4.796875 C 5.828125 -4.679688 6.078125 -4.535156 6.296875 -4.359375 C 6.523438 -4.179688 6.703125 -3.960938 6.828125 -3.703125 C 6.960938 -3.441406 7.03125 -3.128906 7.03125 -2.765625 C 7.03125 -2.347656 6.957031 -1.960938 6.8125 -1.609375 C 6.664062 -1.253906 6.445312 -0.945312 6.15625 -0.6875 C 5.863281 -0.425781 5.503906 -0.222656 5.078125 -0.078125 C 4.660156 0.0664062 4.171875 0.140625 3.609375 0.140625 C 2.984375 0.140625 2.414062 0.0390625 1.90625 -0.15625 C 1.394531 -0.363281 0.957031 -0.628906 0.59375 -0.953125 L 0.96875 -1.5625 C 1.019531 -1.632812 1.078125 -1.691406 1.140625 -1.734375 C 1.203125 -1.773438 1.285156 -1.796875 1.390625 -1.796875 C 1.492188 -1.796875 1.601562 -1.753906 1.71875 -1.671875 C 1.84375 -1.585938 1.988281 -1.492188 2.15625 -1.390625 C 2.332031 -1.296875 2.539062 -1.207031 2.78125 -1.125 C 3.03125 -1.039062 3.335938 -1 3.703125 -1 C 4.003906 -1 4.269531 -1.035156 4.5 -1.109375 C 4.738281 -1.191406 4.9375 -1.300781 5.09375 -1.4375 C 5.25 -1.582031 5.363281 -1.742188 5.4375 -1.921875 C 5.507812 -2.097656 5.546875 -2.285156 5.546875 -2.484375 C 5.546875 -2.734375 5.476562 -2.941406 5.34375 -3.109375 C 5.207031 -3.273438 5.03125 -3.414062 4.8125 -3.53125 C 4.59375 -3.644531 4.34375 -3.742188 4.0625 -3.828125 C 3.78125 -3.921875 3.488281 -4.015625 3.1875 -4.109375 C 2.894531 -4.203125 2.609375 -4.304688 2.328125 -4.421875 C 2.046875 -4.546875 1.789062 -4.703125 1.5625 -4.890625 C 1.34375 -5.078125 1.164062 -5.304688 1.03125 -5.578125 C 0.90625 -5.847656 0.84375 -6.175781 0.84375 -6.5625 C 0.84375 -6.90625 0.910156 -7.234375 1.046875 -7.546875 C 1.191406 -7.867188 1.398438 -8.148438 1.671875 -8.390625 C 1.953125 -8.640625 2.289062 -8.832031 2.6875 -8.96875 C 3.082031 -9.113281 3.535156 -9.1875 4.046875 -9.1875 C 4.648438 -9.1875 5.1875 -9.09375 5.65625 -8.90625 C 6.125 -8.71875 6.535156 -8.460938 6.890625 -8.140625 Z M 6.53125 -7.546875 "/></g></g></g><g fill="#1f77b4" fill-opacity="1"><g transform="translate(51.117663, 16.812753)"><g><path d="M 8.703125 -9.046875 L 8.703125 0 L 7.75 0 C 7.519531 0 7.378906 -0.109375 7.328125 -0.328125 L 7.203125 -1.296875 C 6.804688 -0.867188 6.363281 -0.519531 5.875 -0.25 C 5.382812 0.0078125 4.828125 0.140625 4.203125 0.140625 C 3.703125 0.140625 3.265625 0.0625 2.890625 -0.09375 C 2.515625 -0.257812 2.195312 -0.488281 1.9375 -0.78125 C 1.675781 -1.082031 1.484375 -1.445312 1.359375 -1.875 C 1.234375 -2.300781 1.171875 -2.769531 1.171875 -3.28125 L 1.171875 -9.046875 L 2.765625 -9.046875 L 2.765625 -3.28125 C 2.765625 -2.59375 2.921875 -2.0625 3.234375 -1.6875 C 3.546875 -1.3125 4.019531 -1.125 4.65625 -1.125 C 5.125 -1.125 5.5625 -1.234375 5.96875 -1.453125 C 6.382812 -1.679688 6.765625 -1.992188 7.109375 -2.390625 L 7.109375 -9.046875 Z M 8.703125 -9.046875 "/></g></g></g><g fill="#1f77b4" fill-opacity="1"><g transform="translate(61.071479, 16.812753)"><g><path d="M 2.765625 -7.234375 C 3.054688 -7.847656 3.410156 -8.328125 3.828125 -8.671875 C 4.242188 -9.023438 4.75 -9.203125 5.34375 -9.203125 C 5.539062 -9.203125 5.722656 -9.179688 5.890625 -9.140625 C 6.066406 -9.097656 6.222656 -9.035156 6.359375 -8.953125 L 6.25 -7.765625 C 6.21875 -7.609375 6.128906 -7.53125 5.984375 -7.53125 C 5.898438 -7.53125 5.773438 -7.546875 5.609375 -7.578125 C 5.453125 -7.617188 5.273438 -7.640625 5.078125 -7.640625 C 4.785156 -7.640625 4.523438 -7.597656 4.296875 -7.515625 C 4.078125 -7.429688 3.878906 -7.304688 3.703125 -7.140625 C 3.535156 -6.984375 3.378906 -6.78125 3.234375 -6.53125 C 3.097656 -6.289062 2.972656 -6.019531 2.859375 -5.71875 L 2.859375 0 L 1.265625 0 L 1.265625 -9.046875 L 2.171875 -9.046875 C 2.335938 -9.046875 2.453125 -9.007812 2.515625 -8.9375 C 2.585938 -8.875 2.632812 -8.765625 2.65625 -8.609375 Z M 2.765625 -7.234375 "/></g></g></g><g fill="#1f77b4" fill-opacity="1"><g transform="translate(67.570477, 16.812753)"><g><path d="M 7.3125 -5.515625 C 7.3125 -5.878906 7.257812 -6.210938 7.15625 -6.515625 C 7.050781 -6.828125 6.898438 -7.09375 6.703125 -7.3125 C 6.503906 -7.539062 6.257812 -7.710938 5.96875 -7.828125 C 5.6875 -7.953125 5.363281 -8.015625 5 -8.015625 C 4.238281 -8.015625 3.632812 -7.789062 3.1875 -7.34375 C 2.75 -6.90625 2.472656 -6.296875 2.359375 -5.515625 Z M 8.59375 -1.265625 C 8.394531 -1.023438 8.160156 -0.816406 7.890625 -0.640625 C 7.617188 -0.472656 7.328125 -0.332031 7.015625 -0.21875 C 6.703125 -0.101562 6.378906 -0.0195312 6.046875 0.03125 C 5.710938 0.09375 5.378906 0.125 5.046875 0.125 C 4.421875 0.125 3.84375 0.0195312 3.3125 -0.1875 C 2.789062 -0.40625 2.335938 -0.71875 1.953125 -1.125 C 1.578125 -1.53125 1.28125 -2.03125 1.0625 -2.625 C 0.84375 -3.226562 0.734375 -3.921875 0.734375 -4.703125 C 0.734375 -5.335938 0.832031 -5.925781 1.03125 -6.46875 C 1.226562 -7.019531 1.503906 -7.492188 1.859375 -7.890625 C 2.222656 -8.296875 2.664062 -8.613281 3.1875 -8.84375 C 3.71875 -9.070312 4.3125 -9.1875 4.96875 -9.1875 C 5.507812 -9.1875 6.007812 -9.09375 6.46875 -8.90625 C 6.925781 -8.726562 7.320312 -8.46875 7.65625 -8.125 C 8 -7.78125 8.265625 -7.359375 8.453125 -6.859375 C 8.648438 -6.359375 8.75 -5.785156 8.75 -5.140625 C 8.75 -4.890625 8.71875 -4.722656 8.65625 -4.640625 C 8.601562 -4.554688 8.503906 -4.515625 8.359375 -4.515625 L 2.3125 -4.515625 C 2.332031 -3.941406 2.410156 -3.441406 2.546875 -3.015625 C 2.691406 -2.597656 2.890625 -2.25 3.140625 -1.96875 C 3.390625 -1.6875 3.6875 -1.472656 4.03125 -1.328125 C 4.375 -1.191406 4.757812 -1.125 5.1875 -1.125 C 5.582031 -1.125 5.925781 -1.171875 6.21875 -1.265625 C 6.507812 -1.359375 6.757812 -1.457031 6.96875 -1.5625 C 7.175781 -1.664062 7.347656 -1.765625 7.484375 -1.859375 C 7.628906 -1.953125 7.75 -2 7.84375 -2 C 7.976562 -2 8.082031 -1.945312 8.15625 -1.84375 Z M 8.59375 -1.265625 "/></g></g></g><g fill="#ffffff" fill-opacity="0.4"><g transform="translate(11.385384, 33.430262)"><g><path d="M 8.421875 -4.75 L 6.421875 -9.953125 C 6.359375 -10.109375 6.296875 -10.289062 6.234375 -10.5 C 6.171875 -10.707031 6.109375 -10.925781 6.046875 -11.15625 C 5.921875 -10.675781 5.789062 -10.273438 5.65625 -9.953125 L 3.65625 -4.75 Z M 12.03125 0 L 10.703125 0 C 10.546875 0 10.421875 -0.0351562 10.328125 -0.109375 C 10.234375 -0.191406 10.160156 -0.289062 10.109375 -0.40625 L 8.90625 -3.5 L 3.171875 -3.5 L 1.96875 -0.40625 C 1.9375 -0.300781 1.867188 -0.207031 1.765625 -0.125 C 1.660156 -0.0390625 1.535156 0 1.390625 0 L 0.046875 0 L 5.171875 -12.796875 L 6.921875 -12.796875 Z M 12.03125 0 "/></g></g></g><g fill="#ffffff" fill-opacity="0.4"><g transform="translate(23.472791, 33.430262)"><g><path d="M 7.546875 -7.4375 C 7.503906 -7.375 7.457031 -7.320312 7.40625 -7.28125 C 7.363281 -7.25 7.300781 -7.234375 7.21875 -7.234375 C 7.125 -7.234375 7.023438 -7.269531 6.921875 -7.34375 C 6.816406 -7.414062 6.679688 -7.492188 6.515625 -7.578125 C 6.359375 -7.671875 6.164062 -7.753906 5.9375 -7.828125 C 5.707031 -7.910156 5.425781 -7.953125 5.09375 -7.953125 C 4.644531 -7.953125 4.25 -7.867188 3.90625 -7.703125 C 3.570312 -7.546875 3.289062 -7.316406 3.0625 -7.015625 C 2.832031 -6.722656 2.660156 -6.363281 2.546875 -5.9375 C 2.429688 -5.519531 2.375 -5.050781 2.375 -4.53125 C 2.375 -3.976562 2.4375 -3.488281 2.5625 -3.0625 C 2.6875 -2.632812 2.863281 -2.273438 3.09375 -1.984375 C 3.320312 -1.703125 3.597656 -1.484375 3.921875 -1.328125 C 4.242188 -1.179688 4.609375 -1.109375 5.015625 -1.109375 C 5.398438 -1.109375 5.71875 -1.15625 5.96875 -1.25 C 6.21875 -1.34375 6.425781 -1.441406 6.59375 -1.546875 C 6.757812 -1.660156 6.894531 -1.765625 7 -1.859375 C 7.113281 -1.953125 7.222656 -2 7.328125 -2 C 7.460938 -2 7.566406 -1.945312 7.640625 -1.84375 L 8.078125 -1.265625 C 7.878906 -1.023438 7.65625 -0.816406 7.40625 -0.640625 C 7.15625 -0.472656 6.882812 -0.328125 6.59375 -0.203125 C 6.3125 -0.0859375 6.007812 -0.00390625 5.6875 0.046875 C 5.375 0.0976562 5.054688 0.125 4.734375 0.125 C 4.171875 0.125 3.644531 0.0195312 3.15625 -0.1875 C 2.664062 -0.394531 2.242188 -0.695312 1.890625 -1.09375 C 1.535156 -1.488281 1.253906 -1.972656 1.046875 -2.546875 C 0.847656 -3.128906 0.75 -3.789062 0.75 -4.53125 C 0.75 -5.195312 0.84375 -5.816406 1.03125 -6.390625 C 1.21875 -6.960938 1.488281 -7.453125 1.84375 -7.859375 C 2.207031 -8.273438 2.648438 -8.597656 3.171875 -8.828125 C 3.703125 -9.066406 4.3125 -9.1875 5 -9.1875 C 5.632812 -9.1875 6.191406 -9.082031 6.671875 -8.875 C 7.160156 -8.675781 7.59375 -8.390625 7.96875 -8.015625 Z M 7.546875 -7.4375 "/></g></g></g><g fill="#ffffff" fill-opacity="0.4"><g transform="translate(31.998257, 33.430262)"><g><path d="M 4.03125 0.140625 C 3.320312 0.140625 2.773438 -0.0546875 2.390625 -0.453125 C 2.003906 -0.847656 1.8125 -1.421875 1.8125 -2.171875 L 1.8125 -7.71875 L 0.71875 -7.71875 C 0.625 -7.71875 0.546875 -7.742188 0.484375 -7.796875 C 0.421875 -7.859375 0.390625 -7.945312 0.390625 -8.0625 L 0.390625 -8.703125 L 1.859375 -8.890625 L 2.234375 -11.6875 C 2.253906 -11.769531 2.296875 -11.835938 2.359375 -11.890625 C 2.421875 -11.953125 2.5 -11.984375 2.59375 -11.984375 L 3.40625 -11.984375 L 3.40625 -8.875 L 6.015625 -8.875 L 6.015625 -7.71875 L 3.40625 -7.71875 L 3.40625 -2.28125 C 3.40625 -1.90625 3.492188 -1.625 3.671875 -1.4375 C 3.859375 -1.25 4.097656 -1.15625 4.390625 -1.15625 C 4.554688 -1.15625 4.703125 -1.175781 4.828125 -1.21875 C 4.953125 -1.269531 5.054688 -1.320312 5.140625 -1.375 C 5.234375 -1.425781 5.3125 -1.472656 5.375 -1.515625 C 5.4375 -1.566406 5.488281 -1.59375 5.53125 -1.59375 C 5.613281 -1.59375 5.691406 -1.539062 5.765625 -1.4375 L 6.21875 -0.671875 C 5.945312 -0.421875 5.617188 -0.222656 5.234375 -0.078125 C 4.847656 0.0664062 4.445312 0.140625 4.03125 0.140625 Z M 4.03125 0.140625 "/></g></g></g><g fill="#ffffff" fill-opacity="0.4"><g transform="translate(38.399053, 33.430262)"><g><path d="M 2.9375 -9.046875 L 2.9375 0 L 1.34375 0 L 1.34375 -9.046875 Z M 3.28125 -11.890625 C 3.28125 -11.734375 3.25 -11.585938 3.1875 -11.453125 C 3.125 -11.316406 3.039062 -11.195312 2.9375 -11.09375 C 2.832031 -10.988281 2.707031 -10.90625 2.5625 -10.84375 C 2.425781 -10.789062 2.28125 -10.765625 2.125 -10.765625 C 1.96875 -10.765625 1.820312 -10.789062 1.6875 -10.84375 C 1.550781 -10.90625 1.429688 -10.988281 1.328125 -11.09375 C 1.234375 -11.195312 1.15625 -11.316406 1.09375 -11.453125 C 1.039062 -11.585938 1.015625 -11.734375 1.015625 -11.890625 C 1.015625 -12.046875 1.039062 -12.191406 1.09375 -12.328125 C 1.15625 -12.460938 1.234375 -12.582031 1.328125 -12.6875 C 1.429688 -12.789062 1.550781 -12.875 1.6875 -12.9375 C 1.820312 -13 1.96875 -13.03125 2.125 -13.03125 C 2.28125 -13.03125 2.425781 -13 2.5625 -12.9375 C 2.707031 -12.875 2.832031 -12.789062 2.9375 -12.6875 C 3.039062 -12.582031 3.125 -12.460938 3.1875 -12.328125 C 3.25 -12.191406 3.28125 -12.046875 3.28125 -11.890625 Z M 3.28125 -11.890625 "/></g></g></g><g fill="#ffffff" fill-opacity="0.4"><g transform="translate(42.684103, 33.430262)"><g><path d="M 9.015625 -9.046875 L 5.328125 0 L 3.890625 0 L 0.203125 -9.046875 L 1.5 -9.046875 C 1.632812 -9.046875 1.742188 -9.007812 1.828125 -8.9375 C 1.910156 -8.875 1.960938 -8.800781 1.984375 -8.71875 L 4.28125 -2.890625 C 4.351562 -2.671875 4.414062 -2.457031 4.46875 -2.25 C 4.519531 -2.039062 4.570312 -1.832031 4.625 -1.625 C 4.675781 -1.832031 4.726562 -2.039062 4.78125 -2.25 C 4.832031 -2.457031 4.894531 -2.671875 4.96875 -2.890625 L 7.296875 -8.71875 C 7.328125 -8.8125 7.382812 -8.890625 7.46875 -8.953125 C 7.550781 -9.015625 7.648438 -9.046875 7.765625 -9.046875 Z M 9.015625 -9.046875 "/></g></g></g><g fill="#ffffff" fill-opacity="0.4"><g transform="translate(51.896966, 33.430262)"><g><path d="M 2.9375 -9.046875 L 2.9375 0 L 1.34375 0 L 1.34375 -9.046875 Z M 3.28125 -11.890625 C 3.28125 -11.734375 3.25 -11.585938 3.1875 -11.453125 C 3.125 -11.316406 3.039062 -11.195312 2.9375 -11.09375 C 2.832031 -10.988281 2.707031 -10.90625 2.5625 -10.84375 C 2.425781 -10.789062 2.28125 -10.765625 2.125 -10.765625 C 1.96875 -10.765625 1.820312 -10.789062 1.6875 -10.84375 C 1.550781 -10.90625 1.429688 -10.988281 1.328125 -11.09375 C 1.234375 -11.195312 1.15625 -11.316406 1.09375 -11.453125 C 1.039062 -11.585938 1.015625 -11.734375 1.015625 -11.890625 C 1.015625 -12.046875 1.039062 -12.191406 1.09375 -12.328125 C 1.15625 -12.460938 1.234375 -12.582031 1.328125 -12.6875 C 1.429688 -12.789062 1.550781 -12.875 1.6875 -12.9375 C 1.820312 -13 1.96875 -13.03125 2.125 -13.03125 C 2.28125 -13.03125 2.425781 -13 2.5625 -12.9375 C 2.707031 -12.875 2.832031 -12.789062 2.9375 -12.6875 C 3.039062 -12.582031 3.125 -12.460938 3.1875 -12.328125 C 3.25 -12.191406 3.28125 -12.046875 3.28125 -11.890625 Z M 3.28125 -11.890625 "/></g></g></g><g fill="#ffffff" fill-opacity="0.4"><g transform="translate(56.182016, 33.430262)"><g><path d="M 4.03125 0.140625 C 3.320312 0.140625 2.773438 -0.0546875 2.390625 -0.453125 C 2.003906 -0.847656 1.8125 -1.421875 1.8125 -2.171875 L 1.8125 -7.71875 L 0.71875 -7.71875 C 0.625 -7.71875 0.546875 -7.742188 0.484375 -7.796875 C 0.421875 -7.859375 0.390625 -7.945312 0.390625 -8.0625 L 0.390625 -8.703125 L 1.859375 -8.890625 L 2.234375 -11.6875 C 2.253906 -11.769531 2.296875 -11.835938 2.359375 -11.890625 C 2.421875 -11.953125 2.5 -11.984375 2.59375 -11.984375 L 3.40625 -11.984375 L 3.40625 -8.875 L 6.015625 -8.875 L 6.015625 -7.71875 L 3.40625 -7.71875 L 3.40625 -2.28125 C 3.40625 -1.90625 3.492188 -1.625 3.671875 -1.4375 C 3.859375 -1.25 4.097656 -1.15625 4.390625 -1.15625 C 4.554688 -1.15625 4.703125 -1.175781 4.828125 -1.21875 C 4.953125 -1.269531 5.054688 -1.320312 5.140625 -1.375 C 5.234375 -1.425781 5.3125 -1.472656 5.375 -1.515625 C 5.4375 -1.566406 5.488281 -1.59375 5.53125 -1.59375 C 5.613281 -1.59375 5.691406 -1.539062 5.765625 -1.4375 L 6.21875 -0.671875 C 5.945312 -0.421875 5.617188 -0.222656 5.234375 -0.078125 C 4.847656 0.0664062 4.445312 0.140625 4.03125 0.140625 Z M 4.03125 0.140625 "/></g></g></g><g fill="#ffffff" fill-opacity="0.4"><g transform="translate(62.582813, 33.430262)"><g><path d="M 2.9375 -9.046875 L 2.9375 0 L 1.34375 0 L 1.34375 -9.046875 Z M 3.28125 -11.890625 C 3.28125 -11.734375 3.25 -11.585938 3.1875 -11.453125 C 3.125 -11.316406 3.039062 -11.195312 2.9375 -11.09375 C 2.832031 -10.988281 2.707031 -10.90625 2.5625 -10.84375 C 2.425781 -10.789062 2.28125 -10.765625 2.125 -10.765625 C 1.96875 -10.765625 1.820312 -10.789062 1.6875 -10.84375 C 1.550781 -10.90625 1.429688 -10.988281 1.328125 -11.09375 C 1.234375 -11.195312 1.15625 -11.316406 1.09375 -11.453125 C 1.039062 -11.585938 1.015625 -11.734375 1.015625 -11.890625 C 1.015625 -12.046875 1.039062 -12.191406 1.09375 -12.328125 C 1.15625 -12.460938 1.234375 -12.582031 1.328125 -12.6875 C 1.429688 -12.789062 1.550781 -12.875 1.6875 -12.9375 C 1.820312 -13 1.96875 -13.03125 2.125 -13.03125 C 2.28125 -13.03125 2.425781 -13 2.5625 -12.9375 C 2.707031 -12.875 2.832031 -12.789062 2.9375 -12.6875 C 3.039062 -12.582031 3.125 -12.460938 3.1875 -12.328125 C 3.25 -12.191406 3.28125 -12.046875 3.28125 -11.890625 Z M 3.28125 -11.890625 "/></g></g></g><g fill="#ffffff" fill-opacity="0.4"><g transform="translate(66.867862, 33.430262)"><g><path d="M 7.3125 -5.515625 C 7.3125 -5.878906 7.257812 -6.210938 7.15625 -6.515625 C 7.050781 -6.828125 6.898438 -7.09375 6.703125 -7.3125 C 6.503906 -7.539062 6.257812 -7.710938 5.96875 -7.828125 C 5.6875 -7.953125 5.363281 -8.015625 5 -8.015625 C 4.238281 -8.015625 3.632812 -7.789062 3.1875 -7.34375 C 2.75 -6.90625 2.472656 -6.296875 2.359375 -5.515625 Z M 8.59375 -1.265625 C 8.394531 -1.023438 8.160156 -0.816406 7.890625 -0.640625 C 7.617188 -0.472656 7.328125 -0.332031 7.015625 -0.21875 C 6.703125 -0.101562 6.378906 -0.0195312 6.046875 0.03125 C 5.710938 0.09375 5.378906 0.125 5.046875 0.125 C 4.421875 0.125 3.84375 0.0195312 3.3125 -0.1875 C 2.789062 -0.40625 2.335938 -0.71875 1.953125 -1.125 C 1.578125 -1.53125 1.28125 -2.03125 1.0625 -2.625 C 0.84375 -3.226562 0.734375 -3.921875 0.734375 -4.703125 C 0.734375 -5.335938 0.832031 -5.925781 1.03125 -6.46875 C 1.226562 -7.019531 1.503906 -7.492188 1.859375 -7.890625 C 2.222656 -8.296875 2.664062 -8.613281 3.1875 -8.84375 C 3.71875 -9.070312 4.3125 -9.1875 4.96875 -9.1875 C 5.507812 -9.1875 6.007812 -9.09375 6.46875 -8.90625 C 6.925781 -8.726562 7.320312 -8.46875 7.65625 -8.125 C 8 -7.78125 8.265625 -7.359375 8.453125 -6.859375 C 8.648438 -6.359375 8.75 -5.785156 8.75 -5.140625 C 8.75 -4.890625 8.71875 -4.722656 8.65625 -4.640625 C 8.601562 -4.554688 8.503906 -4.515625 8.359375 -4.515625 L 2.3125 -4.515625 C 2.332031 -3.941406 2.410156 -3.441406 2.546875 -3.015625 C 2.691406 -2.597656 2.890625 -2.25 3.140625 -1.96875 C 3.390625 -1.6875 3.6875 -1.472656 4.03125 -1.328125 C 4.375 -1.191406 4.757812 -1.125 5.1875 -1.125 C 5.582031 -1.125 5.925781 -1.171875 6.21875 -1.265625 C 6.507812 -1.359375 6.757812 -1.457031 6.96875 -1.5625 C 7.175781 -1.664062 7.347656 -1.765625 7.484375 -1.859375 C 7.628906 -1.953125 7.75 -2 7.84375 -2 C 7.976562 -2 8.082031 -1.945312 8.15625 -1.84375 Z M 8.59375 -1.265625 "/></g></g></g><g fill="#ffffff" fill-opacity="0.4"><g transform="translate(76.294972, 33.430262)"><g><path d="M 6.53125 -7.546875 C 6.457031 -7.421875 6.347656 -7.359375 6.203125 -7.359375 C 6.109375 -7.359375 6.003906 -7.390625 5.890625 -7.453125 C 5.773438 -7.515625 5.632812 -7.585938 5.46875 -7.671875 C 5.3125 -7.753906 5.117188 -7.828125 4.890625 -7.890625 C 4.660156 -7.960938 4.394531 -8 4.09375 -8 C 3.820312 -8 3.578125 -7.960938 3.359375 -7.890625 C 3.148438 -7.828125 2.96875 -7.734375 2.8125 -7.609375 C 2.664062 -7.492188 2.550781 -7.359375 2.46875 -7.203125 C 2.382812 -7.046875 2.34375 -6.875 2.34375 -6.6875 C 2.34375 -6.457031 2.410156 -6.265625 2.546875 -6.109375 C 2.679688 -5.953125 2.859375 -5.816406 3.078125 -5.703125 C 3.296875 -5.585938 3.546875 -5.488281 3.828125 -5.40625 C 4.109375 -5.320312 4.394531 -5.226562 4.6875 -5.125 C 4.988281 -5.03125 5.273438 -4.921875 5.546875 -4.796875 C 5.828125 -4.679688 6.078125 -4.535156 6.296875 -4.359375 C 6.523438 -4.179688 6.703125 -3.960938 6.828125 -3.703125 C 6.960938 -3.441406 7.03125 -3.128906 7.03125 -2.765625 C 7.03125 -2.347656 6.957031 -1.960938 6.8125 -1.609375 C 6.664062 -1.253906 6.445312 -0.945312 6.15625 -0.6875 C 5.863281 -0.425781 5.503906 -0.222656 5.078125 -0.078125 C 4.660156 0.0664062 4.171875 0.140625 3.609375 0.140625 C 2.984375 0.140625 2.414062 0.0390625 1.90625 -0.15625 C 1.394531 -0.363281 0.957031 -0.628906 0.59375 -0.953125 L 0.96875 -1.5625 C 1.019531 -1.632812 1.078125 -1.691406 1.140625 -1.734375 C 1.203125 -1.773438 1.285156 -1.796875 1.390625 -1.796875 C 1.492188 -1.796875 1.601562 -1.753906 1.71875 -1.671875 C 1.84375 -1.585938 1.988281 -1.492188 2.15625 -1.390625 C 2.332031 -1.296875 2.539062 -1.207031 2.78125 -1.125 C 3.03125 -1.039062 3.335938 -1 3.703125 -1 C 4.003906 -1 4.269531 -1.035156 4.5 -1.109375 C 4.738281 -1.191406 4.9375 -1.300781 5.09375 -1.4375 C 5.25 -1.582031 5.363281 -1.742188 5.4375 -1.921875 C 5.507812 -2.097656 5.546875 -2.285156 5.546875 -2.484375 C 5.546875 -2.734375 5.476562 -2.941406 5.34375 -3.109375 C 5.207031 -3.273438 5.03125 -3.414062 4.8125 -3.53125 C 4.59375 -3.644531 4.34375 -3.742188 4.0625 -3.828125 C 3.78125 -3.921875 3.488281 -4.015625 3.1875 -4.109375 C 2.894531 -4.203125 2.609375 -4.304688 2.328125 -4.421875 C 2.046875 -4.546875 1.789062 -4.703125 1.5625 -4.890625 C 1.34375 -5.078125 1.164062 -5.304688 1.03125 -5.578125 C 0.90625 -5.847656 0.84375 -6.175781 0.84375 -6.5625 C 0.84375 -6.90625 0.910156 -7.234375 1.046875 -7.546875 C 1.191406 -7.867188 1.398438 -8.148438 1.671875 -8.390625 C 1.953125 -8.640625 2.289062 -8.832031 2.6875 -8.96875 C 3.082031 -9.113281 3.535156 -9.1875 4.046875 -9.1875 C 4.648438 -9.1875 5.1875 -9.09375 5.65625 -8.90625 C 6.125 -8.71875 6.535156 -8.460938 6.890625 -8.140625 Z M 6.53125 -7.546875 "/></g></g></g><g fill="#a6a6a6" fill-opacity="1"><g transform="translate(12.427157, 33.030363)"><g><path d="M 8.421875 -4.75 L 6.421875 -9.953125 C 6.359375 -10.109375 6.296875 -10.289062 6.234375 -10.5 C 6.171875 -10.707031 6.109375 -10.925781 6.046875 -11.15625 C 5.921875 -10.675781 5.789062 -10.273438 5.65625 -9.953125 L 3.65625 -4.75 Z M 12.03125 0 L 10.703125 0 C 10.546875 0 10.421875 -0.0351562 10.328125 -0.109375 C 10.234375 -0.191406 10.160156 -0.289062 10.109375 -0.40625 L 8.90625 -3.5 L 3.171875 -3.5 L 1.96875 -0.40625 C 1.9375 -0.300781 1.867188 -0.207031 1.765625 -0.125 C 1.660156 -0.0390625 1.535156 0 1.390625 0 L 0.046875 0 L 5.171875 -12.796875 L 6.921875 -12.796875 Z M 12.03125 0 "/></g></g></g><g fill="#a6a6a6" fill-opacity="1"><g transform="translate(24.514564, 33.030363)"><g><path d="M 7.546875 -7.4375 C 7.503906 -7.375 7.457031 -7.320312 7.40625 -7.28125 C 7.363281 -7.25 7.300781 -7.234375 7.21875 -7.234375 C 7.125 -7.234375 7.023438 -7.269531 6.921875 -7.34375 C 6.816406 -7.414062 6.679688 -7.492188 6.515625 -7.578125 C 6.359375 -7.671875 6.164062 -7.753906 5.9375 -7.828125 C 5.707031 -7.910156 5.425781 -7.953125 5.09375 -7.953125 C 4.644531 -7.953125 4.25 -7.867188 3.90625 -7.703125 C 3.570312 -7.546875 3.289062 -7.316406 3.0625 -7.015625 C 2.832031 -6.722656 2.660156 -6.363281 2.546875 -5.9375 C 2.429688 -5.519531 2.375 -5.050781 2.375 -4.53125 C 2.375 -3.976562 2.4375 -3.488281 2.5625 -3.0625 C 2.6875 -2.632812 2.863281 -2.273438 3.09375 -1.984375 C 3.320312 -1.703125 3.597656 -1.484375 3.921875 -1.328125 C 4.242188 -1.179688 4.609375 -1.109375 5.015625 -1.109375 C 5.398438 -1.109375 5.71875 -1.15625 5.96875 -1.25 C 6.21875 -1.34375 6.425781 -1.441406 6.59375 -1.546875 C 6.757812 -1.660156 6.894531 -1.765625 7 -1.859375 C 7.113281 -1.953125 7.222656 -2 7.328125 -2 C 7.460938 -2 7.566406 -1.945312 7.640625 -1.84375 L 8.078125 -1.265625 C 7.878906 -1.023438 7.65625 -0.816406 7.40625 -0.640625 C 7.15625 -0.472656 6.882812 -0.328125 6.59375 -0.203125 C 6.3125 -0.0859375 6.007812 -0.00390625 5.6875 0.046875 C 5.375 0.0976562 5.054688 0.125 4.734375 0.125 C 4.171875 0.125 3.644531 0.0195312 3.15625 -0.1875 C 2.664062 -0.394531 2.242188 -0.695312 1.890625 -1.09375 C 1.535156 -1.488281 1.253906 -1.972656 1.046875 -2.546875 C 0.847656 -3.128906 0.75 -3.789062 0.75 -4.53125 C 0.75 -5.195312 0.84375 -5.816406 1.03125 -6.390625 C 1.21875 -6.960938 1.488281 -7.453125 1.84375 -7.859375 C 2.207031 -8.273438 2.648438 -8.597656 3.171875 -8.828125 C 3.703125 -9.066406 4.3125 -9.1875 5 -9.1875 C 5.632812 -9.1875 6.191406 -9.082031 6.671875 -8.875 C 7.160156 -8.675781 7.59375 -8.390625 7.96875 -8.015625 Z M 7.546875 -7.4375 "/></g></g></g><g fill="#a6a6a6" fill-opacity="1"><g transform="translate(33.04003, 33.030363)"><g><path d="M 4.03125 0.140625 C 3.320312 0.140625 2.773438 -0.0546875 2.390625 -0.453125 C 2.003906 -0.847656 1.8125 -1.421875 1.8125 -2.171875 L 1.8125 -7.71875 L 0.71875 -7.71875 C 0.625 -7.71875 0.546875 -7.742188 0.484375 -7.796875 C 0.421875 -7.859375 0.390625 -7.945312 0.390625 -8.0625 L 0.390625 -8.703125 L 1.859375 -8.890625 L 2.234375 -11.6875 C 2.253906 -11.769531 2.296875 -11.835938 2.359375 -11.890625 C 2.421875 -11.953125 2.5 -11.984375 2.59375 -11.984375 L 3.40625 -11.984375 L 3.40625 -8.875 L 6.015625 -8.875 L 6.015625 -7.71875 L 3.40625 -7.71875 L 3.40625 -2.28125 C 3.40625 -1.90625 3.492188 -1.625 3.671875 -1.4375 C 3.859375 -1.25 4.097656 -1.15625 4.390625 -1.15625 C 4.554688 -1.15625 4.703125 -1.175781 4.828125 -1.21875 C 4.953125 -1.269531 5.054688 -1.320312 5.140625 -1.375 C 5.234375 -1.425781 5.3125 -1.472656 5.375 -1.515625 C 5.4375 -1.566406 5.488281 -1.59375 5.53125 -1.59375 C 5.613281 -1.59375 5.691406 -1.539062 5.765625 -1.4375 L 6.21875 -0.671875 C 5.945312 -0.421875 5.617188 -0.222656 5.234375 -0.078125 C 4.847656 0.0664062 4.445312 0.140625 4.03125 0.140625 Z M 4.03125 0.140625 "/></g></g></g><g fill="#a6a6a6" fill-opacity="1"><g transform="translate(39.440827, 33.030363)"><g><path d="M 2.9375 -9.046875 L 2.9375 0 L 1.34375 0 L 1.34375 -9.046875 Z M 3.28125 -11.890625 C 3.28125 -11.734375 3.25 -11.585938 3.1875 -11.453125 C 3.125 -11.316406 3.039062 -11.195312 2.9375 -11.09375 C 2.832031 -10.988281 2.707031 -10.90625 2.5625 -10.84375 C 2.425781 -10.789062 2.28125 -10.765625 2.125 -10.765625 C 1.96875 -10.765625 1.820312 -10.789062 1.6875 -10.84375 C 1.550781 -10.90625 1.429688 -10.988281 1.328125 -11.09375 C 1.234375 -11.195312 1.15625 -11.316406 1.09375 -11.453125 C 1.039062 -11.585938 1.015625 -11.734375 1.015625 -11.890625 C 1.015625 -12.046875 1.039062 -12.191406 1.09375 -12.328125 C 1.15625 -12.460938 1.234375 -12.582031 1.328125 -12.6875 C 1.429688 -12.789062 1.550781 -12.875 1.6875 -12.9375 C 1.820312 -13 1.96875 -13.03125 2.125 -13.03125 C 2.28125 -13.03125 2.425781 -13 2.5625 -12.9375 C 2.707031 -12.875 2.832031 -12.789062 2.9375 -12.6875 C 3.039062 -12.582031 3.125 -12.460938 3.1875 -12.328125 C 3.25 -12.191406 3.28125 -12.046875 3.28125 -11.890625 Z M 3.28125 -11.890625 "/></g></g></g><g fill="#a6a6a6" fill-opacity="1"><g transform="translate(43.725877, 33.030363)"><g><path d="M 9.015625 -9.046875 L 5.328125 0 L 3.890625 0 L 0.203125 -9.046875 L 1.5 -9.046875 C 1.632812 -9.046875 1.742188 -9.007812 1.828125 -8.9375 C 1.910156 -8.875 1.960938 -8.800781 1.984375 -8.71875 L 4.28125 -2.890625 C 4.351562 -2.671875 4.414062 -2.457031 4.46875 -2.25 C 4.519531 -2.039062 4.570312 -1.832031 4.625 -1.625 C 4.675781 -1.832031 4.726562 -2.039062 4.78125 -2.25 C 4.832031 -2.457031 4.894531 -2.671875 4.96875 -2.890625 L 7.296875 -8.71875 C 7.328125 -8.8125 7.382812 -8.890625 7.46875 -8.953125 C 7.550781 -9.015625 7.648438 -9.046875 7.765625 -9.046875 Z M 9.015625 -9.046875 "/></g></g></g><g fill="#a6a6a6" fill-opacity="1"><g transform="translate(52.93874, 33.030363)"><g><path d="M 2.9375 -9.046875 L 2.9375 0 L 1.34375 0 L 1.34375 -9.046875 Z M 3.28125 -11.890625 C 3.28125 -11.734375 3.25 -11.585938 3.1875 -11.453125 C 3.125 -11.316406 3.039062 -11.195312 2.9375 -11.09375 C 2.832031 -10.988281 2.707031 -10.90625 2.5625 -10.84375 C 2.425781 -10.789062 2.28125 -10.765625 2.125 -10.765625 C 1.96875 -10.765625 1.820312 -10.789062 1.6875 -10.84375 C 1.550781 -10.90625 1.429688 -10.988281 1.328125 -11.09375 C 1.234375 -11.195312 1.15625 -11.316406 1.09375 -11.453125 C 1.039062 -11.585938 1.015625 -11.734375 1.015625 -11.890625 C 1.015625 -12.046875 1.039062 -12.191406 1.09375 -12.328125 C 1.15625 -12.460938 1.234375 -12.582031 1.328125 -12.6875 C 1.429688 -12.789062 1.550781 -12.875 1.6875 -12.9375 C 1.820312 -13 1.96875 -13.03125 2.125 -13.03125 C 2.28125 -13.03125 2.425781 -13 2.5625 -12.9375 C 2.707031 -12.875 2.832031 -12.789062 2.9375 -12.6875 C 3.039062 -12.582031 3.125 -12.460938 3.1875 -12.328125 C 3.25 -12.191406 3.28125 -12.046875 3.28125 -11.890625 Z M 3.28125 -11.890625 "/></g></g></g><g fill="#a6a6a6" fill-opacity="1"><g transform="translate(57.223789, 33.030363)"><g><path d="M 4.03125 0.140625 C 3.320312 0.140625 2.773438 -0.0546875 2.390625 -0.453125 C 2.003906 -0.847656 1.8125 -1.421875 1.8125 -2.171875 L 1.8125 -7.71875 L 0.71875 -7.71875 C 0.625 -7.71875 0.546875 -7.742188 0.484375 -7.796875 C 0.421875 -7.859375 0.390625 -7.945312 0.390625 -8.0625 L 0.390625 -8.703125 L 1.859375 -8.890625 L 2.234375 -11.6875 C 2.253906 -11.769531 2.296875 -11.835938 2.359375 -11.890625 C 2.421875 -11.953125 2.5 -11.984375 2.59375 -11.984375 L 3.40625 -11.984375 L 3.40625 -8.875 L 6.015625 -8.875 L 6.015625 -7.71875 L 3.40625 -7.71875 L 3.40625 -2.28125 C 3.40625 -1.90625 3.492188 -1.625 3.671875 -1.4375 C 3.859375 -1.25 4.097656 -1.15625 4.390625 -1.15625 C 4.554688 -1.15625 4.703125 -1.175781 4.828125 -1.21875 C 4.953125 -1.269531 5.054688 -1.320312 5.140625 -1.375 C 5.234375 -1.425781 5.3125 -1.472656 5.375 -1.515625 C 5.4375 -1.566406 5.488281 -1.59375 5.53125 -1.59375 C 5.613281 -1.59375 5.691406 -1.539062 5.765625 -1.4375 L 6.21875 -0.671875 C 5.945312 -0.421875 5.617188 -0.222656 5.234375 -0.078125 C 4.847656 0.0664062 4.445312 0.140625 4.03125 0.140625 Z M 4.03125 0.140625 "/></g></g></g><g fill="#a6a6a6" fill-opacity="1"><g transform="translate(63.624586, 33.030363)"><g><path d="M 2.9375 -9.046875 L 2.9375 0 L 1.34375 0 L 1.34375 -9.046875 Z M 3.28125 -11.890625 C 3.28125 -11.734375 3.25 -11.585938 3.1875 -11.453125 C 3.125 -11.316406 3.039062 -11.195312 2.9375 -11.09375 C 2.832031 -10.988281 2.707031 -10.90625 2.5625 -10.84375 C 2.425781 -10.789062 2.28125 -10.765625 2.125 -10.765625 C 1.96875 -10.765625 1.820312 -10.789062 1.6875 -10.84375 C 1.550781 -10.90625 1.429688 -10.988281 1.328125 -11.09375 C 1.234375 -11.195312 1.15625 -11.316406 1.09375 -11.453125 C 1.039062 -11.585938 1.015625 -11.734375 1.015625 -11.890625 C 1.015625 -12.046875 1.039062 -12.191406 1.09375 -12.328125 C 1.15625 -12.460938 1.234375 -12.582031 1.328125 -12.6875 C 1.429688 -12.789062 1.550781 -12.875 1.6875 -12.9375 C 1.820312 -13 1.96875 -13.03125 2.125 -13.03125 C 2.28125 -13.03125 2.425781 -13 2.5625 -12.9375 C 2.707031 -12.875 2.832031 -12.789062 2.9375 -12.6875 C 3.039062 -12.582031 3.125 -12.460938 3.1875 -12.328125 C 3.25 -12.191406 3.28125 -12.046875 3.28125 -11.890625 Z M 3.28125 -11.890625 "/></g></g></g><g fill="#a6a6a6" fill-opacity="1"><g transform="translate(67.909636, 33.030363)"><g><path d="M 7.3125 -5.515625 C 7.3125 -5.878906 7.257812 -6.210938 7.15625 -6.515625 C 7.050781 -6.828125 6.898438 -7.09375 6.703125 -7.3125 C 6.503906 -7.539062 6.257812 -7.710938 5.96875 -7.828125 C 5.6875 -7.953125 5.363281 -8.015625 5 -8.015625 C 4.238281 -8.015625 3.632812 -7.789062 3.1875 -7.34375 C 2.75 -6.90625 2.472656 -6.296875 2.359375 -5.515625 Z M 8.59375 -1.265625 C 8.394531 -1.023438 8.160156 -0.816406 7.890625 -0.640625 C 7.617188 -0.472656 7.328125 -0.332031 7.015625 -0.21875 C 6.703125 -0.101562 6.378906 -0.0195312 6.046875 0.03125 C 5.710938 0.09375 5.378906 0.125 5.046875 0.125 C 4.421875 0.125 3.84375 0.0195312 3.3125 -0.1875 C 2.789062 -0.40625 2.335938 -0.71875 1.953125 -1.125 C 1.578125 -1.53125 1.28125 -2.03125 1.0625 -2.625 C 0.84375 -3.226562 0.734375 -3.921875 0.734375 -4.703125 C 0.734375 -5.335938 0.832031 -5.925781 1.03125 -6.46875 C 1.226562 -7.019531 1.503906 -7.492188 1.859375 -7.890625 C 2.222656 -8.296875 2.664062 -8.613281 3.1875 -8.84375 C 3.71875 -9.070312 4.3125 -9.1875 4.96875 -9.1875 C 5.507812 -9.1875 6.007812 -9.09375 6.46875 -8.90625 C 6.925781 -8.726562 7.320312 -8.46875 7.65625 -8.125 C 8 -7.78125 8.265625 -7.359375 8.453125 -6.859375 C 8.648438 -6.359375 8.75 -5.785156 8.75 -5.140625 C 8.75 -4.890625 8.71875 -4.722656 8.65625 -4.640625 C 8.601562 -4.554688 8.503906 -4.515625 8.359375 -4.515625 L 2.3125 -4.515625 C 2.332031 -3.941406 2.410156 -3.441406 2.546875 -3.015625 C 2.691406 -2.597656 2.890625 -2.25 3.140625 -1.96875 C 3.390625 -1.6875 3.6875 -1.472656 4.03125 -1.328125 C 4.375 -1.191406 4.757812 -1.125 5.1875 -1.125 C 5.582031 -1.125 5.925781 -1.171875 6.21875 -1.265625 C 6.507812 -1.359375 6.757812 -1.457031 6.96875 -1.5625 C 7.175781 -1.664062 7.347656 -1.765625 7.484375 -1.859375 C 7.628906 -1.953125 7.75 -2 7.84375 -2 C 7.976562 -2 8.082031 -1.945312 8.15625 -1.84375 Z M 8.59375 -1.265625 "/></g></g></g><g fill="#a6a6a6" fill-opacity="1"><g transform="translate(77.336746, 33.030363)"><g><path d="M 6.53125 -7.546875 C 6.457031 -7.421875 6.347656 -7.359375 6.203125 -7.359375 C 6.109375 -7.359375 6.003906 -7.390625 5.890625 -7.453125 C 5.773438 -7.515625 5.632812 -7.585938 5.46875 -7.671875 C 5.3125 -7.753906 5.117188 -7.828125 4.890625 -7.890625 C 4.660156 -7.960938 4.394531 -8 4.09375 -8 C 3.820312 -8 3.578125 -7.960938 3.359375 -7.890625 C 3.148438 -7.828125 2.96875 -7.734375 2.8125 -7.609375 C 2.664062 -7.492188 2.550781 -7.359375 2.46875 -7.203125 C 2.382812 -7.046875 2.34375 -6.875 2.34375 -6.6875 C 2.34375 -6.457031 2.410156 -6.265625 2.546875 -6.109375 C 2.679688 -5.953125 2.859375 -5.816406 3.078125 -5.703125 C 3.296875 -5.585938 3.546875 -5.488281 3.828125 -5.40625 C 4.109375 -5.320312 4.394531 -5.226562 4.6875 -5.125 C 4.988281 -5.03125 5.273438 -4.921875 5.546875 -4.796875 C 5.828125 -4.679688 6.078125 -4.535156 6.296875 -4.359375 C 6.523438 -4.179688 6.703125 -3.960938 6.828125 -3.703125 C 6.960938 -3.441406 7.03125 -3.128906 7.03125 -2.765625 C 7.03125 -2.347656 6.957031 -1.960938 6.8125 -1.609375 C 6.664062 -1.253906 6.445312 -0.945312 6.15625 -0.6875 C 5.863281 -0.425781 5.503906 -0.222656 5.078125 -0.078125 C 4.660156 0.0664062 4.171875 0.140625 3.609375 0.140625 C 2.984375 0.140625 2.414062 0.0390625 1.90625 -0.15625 C 1.394531 -0.363281 0.957031 -0.628906 0.59375 -0.953125 L 0.96875 -1.5625 C 1.019531 -1.632812 1.078125 -1.691406 1.140625 -1.734375 C 1.203125 -1.773438 1.285156 -1.796875 1.390625 -1.796875 C 1.492188 -1.796875 1.601562 -1.753906 1.71875 -1.671875 C 1.84375 -1.585938 1.988281 -1.492188 2.15625 -1.390625 C 2.332031 -1.296875 2.539062 -1.207031 2.78125 -1.125 C 3.03125 -1.039062 3.335938 -1 3.703125 -1 C 4.003906 -1 4.269531 -1.035156 4.5 -1.109375 C 4.738281 -1.191406 4.9375 -1.300781 5.09375 -1.4375 C 5.25 -1.582031 5.363281 -1.742188 5.4375 -1.921875 C 5.507812 -2.097656 5.546875 -2.285156 5.546875 -2.484375 C 5.546875 -2.734375 5.476562 -2.941406 5.34375 -3.109375 C 5.207031 -3.273438 5.03125 -3.414062 4.8125 -3.53125 C 4.59375 -3.644531 4.34375 -3.742188 4.0625 -3.828125 C 3.78125 -3.921875 3.488281 -4.015625 3.1875 -4.109375 C 2.894531 -4.203125 2.609375 -4.304688 2.328125 -4.421875 C 2.046875 -4.546875 1.789062 -4.703125 1.5625 -4.890625 C 1.34375 -5.078125 1.164062 -5.304688 1.03125 -5.578125 C 0.90625 -5.847656 0.84375 -6.175781 0.84375 -6.5625 C 0.84375 -6.90625 0.910156 -7.234375 1.046875 -7.546875 C 1.191406 -7.867188 1.398438 -8.148438 1.671875 -8.390625 C 1.953125 -8.640625 2.289062 -8.832031 2.6875 -8.96875 C 3.082031 -9.113281 3.535156 -9.1875 4.046875 -9.1875 C 4.648438 -9.1875 5.1875 -9.09375 5.65625 -8.90625 C 6.125 -8.71875 6.535156 -8.460938 6.890625 -8.140625 Z M 6.53125 -7.546875 "/></g></g></g></svg>